<mxfile host="app.diagrams.net" modified="2024-01-20T20:53:34.298Z" agent="Mozilla/5.0 (Windows NT 10.0; Win64; x64) AppleWebKit/537.36 (KHTML, like Gecko) Chrome/120.0.0.0 Safari/537.36" etag="iEWItpVIbfw09IA54ePs" version="22.1.21" type="github" pages="2">
  <diagram name="Page-1" id="55a83fd1-7818-8e21-69c5-c3457e3827bb">
    <mxGraphModel dx="1434" dy="1630" grid="1" gridSize="10" guides="1" tooltips="1" connect="1" arrows="1" fold="1" page="1" pageScale="1" pageWidth="1100" pageHeight="850" background="none" math="0" shadow="0">
      <root>
        <mxCell id="0" />
        <mxCell id="1" parent="0" />
        <mxCell id="69ecfefc5c41e42c-3" value="" style="image;html=1;labelBackgroundColor=#ffffff;image=img/lib/clip_art/networking/Firewall_128x128.png;rounded=1;shadow=0;comic=0;strokeWidth=2;fontSize=22;labelPosition=right;verticalLabelPosition=middle;align=left;verticalAlign=middle;" parent="1" vertex="1">
          <mxGeometry x="480" y="300" width="80" height="80" as="geometry" />
        </mxCell>
        <mxCell id="cAr-tdFP_zZSeBQopmbQ-2" value="" style="shape=image;verticalLabelPosition=bottom;labelBackgroundColor=default;verticalAlign=top;aspect=fixed;imageAspect=0;image=https://cdn-icons-png.flaticon.com/512/3887/3887847.png;" vertex="1" parent="1">
          <mxGeometry x="570" y="-3.5" width="162" height="162" as="geometry" />
        </mxCell>
        <mxCell id="cAr-tdFP_zZSeBQopmbQ-4" value="" style="shape=image;verticalLabelPosition=bottom;labelBackgroundColor=default;verticalAlign=top;aspect=fixed;imageAspect=0;image=data:image/png,iVBORw0KGgoAAAANSUhEUgAAAHcAAACHCAYAAAAsq8aTAAAAAXNSR0IArs4c6QAAAARnQU1BAACxjwv8YQUAAAAJcEhZcwAAFxEAABcRAcom8z8AADkUSURBVHhe7X0FeJRXt27vveec//9rtFC0tFA3KlRoS0spLV6hhba4RpAACR68uLu7u7tDgHhCHAnEnQRICCRY4L3rXTMDkzAxMqG0h/U86wlMZibf9717+dprP4HH9I+lx+D+g+kxuP9gegyuBcrMvIEbN24Z//f3pcfgmlFm5nXMX7QfTZpPRBub6di20wu4c8f4278fPQbXjCZN3YZSL7bHc+Xa4dmybfDi6x3RZ8ByxMVfNL7j70WPwTWSy7FgvPZeV5R+yQb1fh6hXLKCAF2+LWo3HI69+/2N7/z70GNwhVJSLqNho1F4tkxbfPZ1X3h4+iPkZCi695yHSm92Vil+9V0HjBizARcuXDZ+6tGnYgE3MfESFi09iI5d5+P3VhPRWuzXyHEbERAUYXzHo0WDh61RCa34eicsXXEQKckJSEyIRXx8DJYs34svaw3A8+XbqST//PtYuLqdMn7y0Sarg7t1hxe+/m4gylayw9OlWuHJEs3wbKmWKPtSB7z9kSOGj1mP9PRM47v/etq11xcvi3SWEOns5bwUt29niWOVgZiYWMTGRCFZgPb0CoRNx5mo8Ko9ni7TBu9WdcLUmTtx5cqjcx+WyKrgrt/kikpvGdXYO13Qqu0UtO69BNVbT8Prn/RCGXFWuPp79F2KK1f/+gcTG5eCb+sOwTOijmvV/xPxCReMvwFu3ryJ8+fPIzIyUjRRHKKjozF99hZU/by3SvELFTugZfup8A98NLURyWrghp6Nx4fVeiuwNesMxsHDgdgbmYLBAXHo4RUFm83eqPb7OFSoZCsPpr2ovyPGT/41lJV1G06y8EqUbSsLsgv27Pcz/uYe3ZEwKC0tTaQ4RjhapfiIizeat56AspVtZVG0QtUv+qgJehTjYquBO2zkelnR7fHexz3g4xOKwGs30ds/Hk6+MejjHwvn4ETY7fTBh/WHorRIcK16Q5GadtX46YdP6za4ocJrdightnbIiHWijm8bf3M/Xb9+XaQ3EVFRkSLNCQgLC8fo8WvxTtUeupjLvmIn/sU8REadN37i0SCrgHtDVBjDhWfFHvWXuDD11m2MCklAV69I9PKJVu59Ig5OHqH4efRaVBTbVVmkxd3zjPEbHi6FRyTg85r98fQLrdFAvOQLF/P3gAn+pUuXBOAoxMbGqBTv3OWGHxqPQumXbVGiXFv88se4R8qbtgq4iUkXJYToh6dLt8bWze6IupGF7t7R6GkE1gBuDJzcQ9Fy2X5Ulnjy5Tc6Ye2G48ZveHhE9WnfdY6C8eb73XD0eIjxNwWjjIwMATdWbXCySPGp02cxYOgy9bTLisnZucfX+M6/nqwC7vnzl1BNwW2DjeuPIfpmFnoIoNnBjUV319NosWQvKr1rAHfdRjfjNzw8WrTsoNpLOnYTpmw1vlpwoqMVFxenjhalOPXSeWza4oLKb3cRCbbBpq0exnf+9WQVcLOyslS90f706LUISddvYkRwArqLI2UCl9z1WAga/rkCL4pafkUehrfvOeM3PBwKDI5Sp++pF1rht5YTJSTLMP6mYEQHKykp6S6wSYnx8A84he8a/olnRRN8/f0g9cAfFbKaQzVx6nZxqETVVemGvQcDsCXlKrr6GiS2j3+cOFcxaLvmCKrUGoDSFdqh/s+jJBy6Zvx08VNG5jW0aDdN/YIqn/SEr3+Y8TcFJ3rOJmDjxO7Gx4k26jlPQ6NKsli3bPc0vvPRIKuBGxl9HtVrDRTpbYvPq/fD2EUHMNQzXFWzk0c4ms7ZjQ/qDkY5cT7KiVrcuKXo6is65jwWyN9ZsPiA/jsvmjZrF0pLbFqmog1mz99rfLXglJmZqXbWAC7tbSIWL9+Dl9/qpDFv3wErjO98dMhq4JL2HvDDOxIKPSlqr/KbHVG15kB89stYfFB7CF4RJ+oFsXN8ECPGbhAVl3voURA6ExqH7xoMQxlxYujI1Kg9GJu2eVj8XnrlzCo9Iw5fW7uZuJpROI1x69YtxMfH31PHSfGatfryW2f1lMuLmWn4yyi4uT9aaUmrgks65nYSvzQdr87FC6J+X5Ibf+lVO5R5qYN41M5YsOSAPqyi0LXrN9DGdqbmgyu/7YBX3nVQ7/clcdKcB61EfMK9El1qWrqGKE+VaoVPqvfFqTMxxt8UjGhnU1JS7qljUcXR0VGw6TQDpWShVn6rM14ST/l5udc3Pugu5mnbI5OWtDq4JCYnDh4JwoAhqzT7w4c+ePhqREUnG99RNJq9YC/KyOLhApo+ZxeOHA1GvZ9HKsAlyrVD3R+H49CRQPFsb2H0uI1ao63wmj1WrD5q/IaCU3p6uoJKplpmUWHW3K0qrSVfFC00ZoN4y+4ixQPUoSwpf6tl+2myiGKN3/DXUbGAayJmbF6RsIdlMyborUE+J86hyqc9NKamg3TV6JSlnL8oUrtCFxK94Xc/dkJnx3l4/7Ne6ug59FgoGiNL31tQunHjhsa0Jqk9L+rY5agvPq7eR4H8+bexuJR6Rd8bei4etp1nobRoKP6OSZKdu330d38VFSu44RFJ6kUyBty+q+jgXr58Fb+1mKjgMad7MiQKtLCboy8iPPOmvmebeKxffTdQPVhKEW0yQ5T8HK6cRHXMlGNERIRBHcfHIiI8As3aTBRz0A5vf+gEDy9Dhu1S6iXcuHUd167dwAxxHN/8wBHPlGmNV95xwPRZOwu9qKxFxQru2XMJWk6r/LZI7p4TxlcfnMZN2oIXRDLKv2KHJcsO6mtHz19GZ49IOPvGwCXZkPqLFc+9i+MCVZ0viHf8nkjxrLm7kZFxXX9fEGKq0SSxmo0SdTx+8gZdLLS1LPmRrmZkSKQgajs2GpfTDX//kJikGnUG46nSrTRh0st5WaFjamtQsYJ7Wjzaiq93VMktapvKUbdT4rB002QB04c3r9/ExRu38GdALLp5RcHRKxrdhZeGJSM1646I3m0sW3EYVb/sK86OSLDY59Y2MxAUHGX8xtyJKUaCagKXacbd+zwkPnZSm9683VTRIhm4LX8jPiEBUTHRiJa4lyAnXzD4FVzYzdpMUaePzlbrDtMfeoKjWMENORWtlRe2qBw8FGh89cGo78AV+J8SzVBdVG5srOEBropIgYNZFqyndzS6eEZhRGAcAlINknLmdIx2grA3inb64y/7YKmAzqyaJaInb55eTBB1fPbsOTT6YzSeK9ceH37e+67HffHSRUTGiGQLsCYmwAmiziEG4/LlTK1dl6lko/E/bfS58AT97MOgYgU3MDhSVKMBXJejhUvQZ6c76O28FP9dojm++GYA9h/wh3fSRXQ/fgpOXpFalDBPc1KSe8vPLWKLCWHW9euYKbbwXWMMTs+ZajsyMsnw9UainU1OTr5rZ2NEHdOJGjpyFcpVtlP+SGz9YZcguSKJfRPj70ptToBjJWTKyrqJ27fvYPT4TXhR/iazY3V+HCExeuHCsQelYgXXLyAc5cQ+viYe83G308ZXH4wOSmjDOJLtMK+Lo1Kv40y0Wn0IDvKgnTzC0EtsrrIR4B4ixQ6ekZh+KhFRmTf0O3x8zmoMXkpCmGfkQX/9/eBsKcPLly8bJDaSdjZK4ttEbNp6VM0BEyVsdS0lNv8tcabmLNyNRAE+QTgnuGQFXQDOvCYxryyamXP2qP9B7cGuj5BTxQ9wsYLrK2ELU42vv9fVKrVbZsC+rT9U1GMblK7YHu9/PxC/TtwI+33e6CZS3JNS7Bt7F2CmPh1ETQ/0i4VLUrp+R0b6VYl9N+k10et++c1O6DdoJWJiEsWJSlZQVR0nxIl9PqMxMyWOgMxfvB/f1Bkin2utnxs9cZ1Kb14Ak69cMfztRUsPacKFAH/fYDjOnC3eWLhYwfX0ClVv8bUqXSU+PWt8tWgULfa2R98louY6opzY0deqdMO3XWah3YajcBDpdnQ/ZwDYTIpZnSIvCzuPNDpbQkxy1BHg6PAwtPmu3hCs3XAIiQKqSqT87OW8SL3tCq92lN+56ucCgyJR96cRKvl0FoeNXl0wgK8aAF668ggqv9NFAa7XaGShQ7TCULGC6+ZxWp2J19/vqiraWnQ76zY2bHbH5zUGoLyoS6Y4P2o4DL/N3GaQ4mMmKTZX01GqpkcF3XO2ks+nitSuUHX5TOk2ePU9B/QfsgzhEs+uWnNQ4tQumpBw7L0kWxtOhNjqn8Q5Yp8zVfWwMWsU4Hg20uUCMO1wujFUYgqWyRYukMZNJ8hiuqSvW5uKFdxjricN4IrkcsVbk5iZ+qnJGE1BMr1YRmLP1z9yRJ3eC2Gz9Tg6H/KHo9tZkeDsUkyA+XObOFsmuFhgZ+KDD5tOU4NGI/DN94NUomvVH2axNyoqJhm//DFevWACNWHqRiQlJyJOJD4vgE0qesr0HeqPMGVq23nO3UybNalYwWXOl+C+8X53BIdEG1+1Do0at1ETGq+91w0OPRagWg1nlJQHxUaATxuPRrMFu9HpgK84XCEqteZS7CTOVlexxTNPJSHG6GyFhyeic7f5miBhlwZBZoZpcx6dFdEC8A+Nx2i1ibH8/CV7JM5NUk85N4Cj5CedLGqCwSPWakKEPGT4GmRZOZNVrOB6iBNFyXrjA0d5ENYL4Nk2S21AqenWcxHuyIM6dTIKzdtMQZmXO6A004MSjzYYvAy2293QRaS4uyulOOYuyCZna7A4W8fOG9TlHXm4i5cf1tRmSVa03uiItnbTcVLi9dyIOeXvGvwpNrQt3qnqhM3bj+HCxSSL4JJNNvj6jWu4eTMLnbrPx7PiILLhfcmyw8ZvtQ4VG7gnxdVnurDcK7Ya5y5ZfgThOeLKB6EksZN1fhiOJ0u1FFU6CHGx55F46zbc0zKRdjUT06dvx1sSMpUsJ+CIPfyyxQS0XLoPHSnFR4Lv86gdNbsVhRVhybhsTGwEiQlp1WG6ZrWoNj+u3hfLVh3JtVTp4xeOT77qq2qdW09cPQKRkg/AsfFxuH0nC8kpaRKejVMH660Pu8OlkA17eZHVwd130B/t7WfJzfYTFddJvOUuKPuKg0iBg4Lh2Gcx/B6gxYXEhADDlhKy0l9+qwt27PTW16ecTERH9wgsibiAixJT+nidxs+immmLywq/83U//DRqLWx3eqDzQT90Px6aTYoNMXEUxgbFI8TobF3LuIbps3caivxlWquadnBaIM4Us0/3045d3mIiWFduhyYtxolEhyPxfIJFcMm0v3TCSIx5aVYIcM16Q61WGrUauHQIBg9bi1fFTj1ZshWeKWePKp/2xjffOqB6DXu89q4dnipjj2fKdsD7n/aUmPFANg+0IMR9SHRenhNpYlGetCsuFd3ESTIlLYYHxiMo4wZSLqRi5Mh1EnZ0RilR3yzq17CZhjZrDqPTfl90ORyEHp7h2Wwx7XAf+bkz9iJMMkrTwsQHnStK8deyQLmALdGM2btF2g2FhQFDlouWSVAJtQQumRKcnGIAcrssDhb+6Z13dlxQ5IYGklXAzZBVTonkA3i+Qgd822A0Zk6dAfetXRFxoBnO7m2CvQt+g3OX5ni/akc8/6K9SLW9PIxdxm/InyKjEvF17UG6umtLfJp6IQ0R126hr4Bj3mXJfzuKA7U2JhXpovYOHTiB7+v/iZJybeXlwb8vXnDjSZtgv8dLQD6hUqwtuEaQ+dluAvKsM4mIzTRUkdJSr2Dk2I3a50yAPxUVzO0zOenGjZsq3XwPw6iVaw+K/T1vEVgTU4LTLqfp55mmVGeukp0mPIpKVgF3+qxdelEvvGSDTk5LEXNaQIuzA879BJxuBJz5BQj7GRle9bFn3o+oV7uDANxRN43tO5B/tYg5X24BZV743U96wFVCLMr8xJB4dBWJNQFrYpMUjw1JwNnrt5AQn4K+zks16VBSJONVAalW17lov+EoOu3zQZeDAejpGaGdmr18Dc5WF/n8EP84uCYZHjxpzbpjmtl6WtT05m2WOx2ZZGEWjXFzzbqD4et/UkMkS8Ca840b1yUOvobfW07WBcwcdlG3vBYZXDpO7AWmM9HGbi5SL4UCMZ2BwAbimfx6j4N/RVZAI6S51cbx5Q3x1dfcSGWjlZLUNEM3Q25E9d2x2zz89zNN0UjefyUjExvDYtF+tw8c3cOyqVZz7qoxbQx2JV3B1axb2LLZFZ/X6K/OVgUJ0ao2HIY/Zm6H/V4vdNzrg27HTuvnTN9HLWC/3x8L/EIRfyUTk6Zs004Lph6PygLLjfaKRmBoVKJsO9FoCzR7lVv8S6Z6jkugJriDgMAINVtPlmqlczk4p+NBqYjg3tFgnDnaKp/1QkBwHJA6D/CvJ4CKtJqDawT4wrGGSDlaG3OHNxH72VkcLvsCSe/UmTtkRbdCJXmwTSTkaTl/F2z3eAoo3ujqchI9c8SyJmZMS2dpymmJaQXg8LAEdHKYi/KVbTVkMiU+Omw5LiB7o/OBADjRFp+IU5Vts81dFpEn2k3firdE4mnvu/VcqBNvciNqmgFDVqo2Y6y8fvMRjX8tAWtiqueUC4Zwcc6CfZofYGPA4mUPrp6LBG5m5jVte9EsS9dFImIS6oTaAwE5pNYM3KuePyHuQF2c2lYPX9WwVfU8ZPha4zfmTgwZ7AQUJi6o8l77uAfqiaplHEvJ67Tfz1gdyp6RIpti2n6idl0uZSDt2g0sW3IAH33eC8+Lmq4o9v/TxmPQbOFuWSwixXu80e3oKbHLvrDf7YXWqw7hzRr95L3iUIndj4zOP6RLSLig7bZMUf4knvu5sEjE5yG9ZErwtcxMXLt2E3+0nKTJkWpfO2u680GoSOByRxuL34wHZy86Dlz3FQB/E5X8c67gXvdthJh9dRG9ty5sWrTCcxU6amdDQYgqatbcPXjvEydVrdwtWO2PsWi+eC867vNWJ6nr0ZMGUC1KMfPLUZgTloLErNsIEhXYos1kbVYv+2IHvCXap8Hg5bDd4S6gesJOQie7XZ6o3naKFimojrcZw6+CEDe6sXDCMGrKjC24mJq3c2WKf6kRPbxC1YFjooYTdQobWZDuA/f69ZtIS7uKy9rzk/cMpvPJaXjno+568Ws2i2rNEICDxIkKEicqN3BPNEL0vnoKcC/75gKuHX5sMqZQF+/lexaNm01AhVft8OJLtnhbFtgPw1YZQKEXvI9STNUae5+qNknxIP9YeF2+jkuXMzBzxi6R4t5ih+20iPAFEx/LD6CLiz9+HL5aw6/nZTH1H7xCY+2CEhvmuHCZcKFz5Rd4Wp5Z3s4V1fP5FEMu+08J5RgasR7u5lH4kuldcNlZuGrtUXToOEtLYT82HqsVE1Z2ciM2h3/+TX9NMc5bIsBeOyER+e95Sm6mz8+I2V8PUXvrwq4VJdcOTcWG0k4VhtKvZOj1MaR6URYXdw1Wbz0ZrVceUjtsL3EjVauCakGKDWXASCw8GY0LN29i3qJ9WkasID5AeZHS974dgHr9FuPdGs4oJcDW+3EEEs2a3QtKh12CNUPHbsxxkzcouDG55J5NfC48DNdvZCAmNkUTP2y0a2s3AzcLGfsquFFRSWglnhnj1GfFzS8vYHF+RQnR+dyNN23WTnn42SWLf3jJisOy4vvoFpGO3RbLq+IQhHbK0+Zedv8RsQfq4Mz2eqjxjY3YXDsMHLra8KWFpKGysqk1mJelg1ROruO9ms5oNG69gCtqVVSrQYqNHrU5yPJvhyMhaC3S3kfe+6NogvLyXcwPv/6eg+7+55CWUhXaae81O0EehG7LorXtPFszV9W/7S9O5+lca78mjoiKRJgATJq3cL8KT0VZvIXt/X7i6tVMtLObqaEMc7F0kGyGrMH3XebjbQnWy1Rsr5WSReK1nZHAfcmKI2jVYYZuzaC0sPGMNvdDATlYAn+kLbPsLQuw5GSXBkhxqY3FoxvjZYlzS1eyf6C2101b3SVutde/37PfEt1/xPCjJLNRIinf2M9A2/Uu4mx5CtC0xZRig0fN3LKj2zm1p3TGqotUvCBgcpFwV8LBQwG6JfXtj5w0rzxfnK+i0HG3k6ruy8rimThtY76JDXLIqZNITb2kXZZsDmDsSyeLiZKC0hNbt3sZVr/wsLEbsSkiBQNDEtEnJAk2m7zwgXh8FUQq3vrAEW+IgedKpooxNV3/IJ4g4zKO1OvQeYHEoAlAbE+R3vrZARZgb/o1wqVjdeC9tgFq1rTB02Vs0eCX0biUaqhxFpRYgPiSOwplQXIbiWnswTaOSfp+sLbgVJQF+UHdIWg8dYuqaTpHnSVm7eEZocWDjnt81DP+dbwsCpFMZrDYNEefg3TxUjpc3U8jLMJyLrkwdP3adbQXAfrP8y1Rv9EInDkXnmthn0y1HXruLEJOGooIq9cf15Qmd+9v31Fwh+6JLt3na+zWSEKBI1Ep6BuYoBkeOiN9g+LQZMpWVHqrk2Z36FhwoMlvsoJmzdsDX79z6lSNn7zlbne/U781SIr1AuIcgbPiXJ0R5ypUQD77M9I96uPIkh/wY8MOKFmxk8a52wvhfZK4/6dTt3kKLMf5uRzLXkVhEZ0pQF4rJ+e8JovyO8f56LDpuIJpv9tbgPUV9kTr1YdRRWxrqfJtUV1sW0FCnAclNuJRA74oAC1bdUAWdLJFYE1Mz9nnhK8s3GRtkeUuwn8910LM5zRkFrC5/olGf4zXHXCD/lyDHXFpcPQx2iWqL79odVDerNZTJZtFca7knGN5uKvNvus8XSRMQdb7ZQJWLF2JoH1OiD38G6IPNsHxVY0xvFdTVP3MXoGlKh8/aYvxGwpOy1a5aCci661jJm4yvpqdps3eqc4RbRW3jVKKPxHV1nTeLoMUUx3v8sBX7aaof8GFsLmYN05TE9QXVf+v51qiY9fZIp0xeWatGBIFhgThhL9hhBJbc3jfFLLjrgXbKvpE87ZTNVh2EGlwSRRwmV8VcGmbeniHo8XCPagkEsLC9bo8ZlhcSr0qtm+pdkI8I3avRHk7vP9ZX9Su0wW1aokEvWuPZ8t3lAXAzoxumDZzp0phYSg4JErjajp9TZpPsDjqyNPrjG4f4Xyplh2mwabLbJUYOohviNapL9fIcOmnUWvU5nOTWF+JI2/l0qRuTRozcYs6nzRj7l6BeYZFBDc07KxEK+64cCFZFscVrUgxKdK91yLjN+ZNT0yculVV6gfiJW46FIgpkanoHZSIfsGJ6CL/rynORjlZ3RztFyQPNy/ihqct2zzwa7Px2gDO1OLTZWzwTDlZcW84aLc+Qy3XB9ikzPiyM9WxxH3slPCxME/j4kXuxR2rzsenXzvjdCj7hm9g5tw9qPJJDzwvqpw7Dj8RCXpHHCW25XzfMPvkuOKkwKAobSSgEzh7wQ6t91KCLYFLu0vV7OHliaDgIP38+Mlb9f4/rNYH58Ly37nwxLmweJGGvhoG1aw9CM7z9sNukzeaLzyIGrbTdZce1S2dDU5dKwhRIr19z2LZyiOYPH07pkootWa9K04XcuOzOV25eg016w7Fv59vgV79lxpfzU6jxm3QfUFsPFu+2sX4qoE8PEPxa9PxspDbaZhDB+r1Kt2w/1DR9jAVhujp8hq4d6h5u8majoyNzz3mJcB+Af445nocGRnp8vxiVcjoXPG55kca527Y7KZNbBzESdv6TrXeqFylK17QuLcNGv46ClHRxddfWxCi2mzWdrIWKVgOo101r5iwr4oOFtVxF6f5FvcCXRLVxgIE21JbtJuK3XuLvvOwsMQtngbN0k/s6SkkJOYe8xLck6dPKbihoWdEM95EF/F7/vvZ5jotIE3CpLzoboZq7wF/XVVUG4xtX5TVT/vWs+8S7fJ7FIihSbUa/fXh0FniDvaz5+K1r6reTyO1TMahK/kl2tlccMMY8jxschcNwl5nFvOXrtyPlDyqRQSX2SpXdze1vbdv39JBMdyayjw3B4DnRdlyyxkiCaxTrt/kpsXokJPWbUe1BoWcjEFb2xnqbZsa0phnpqribIri9nqLSolJqagjnvtTskCdBy0VpzDFIrBkgstcs6e3l0pvdCxHBF9W8/QvMU8jdXBM7mnbbOD+XYjqmLv23v+0F/5TsiX+39N/qBfKcK6wOeqHTbw+jnD4f083EzMzCZHiNOUWEpmcKoZDBNcQFmWhh3j8TBp933AY0vJodPhbgmsiVoec+ixBG3H82JxGdft3oCkz2HjQGt/UHQxPn2AkJefeJUkOFG/5uJurclraBd3IzlQpk0Ae3qHGb72f/tbg3qNHW1pzEtOknPLDfizu2M8r18x4l04VgT16/Bgio8KRkHRRW4cZUrE3PDf6h4D79yI//3CN+Rlirlx7KM9UJME9czZUnSoCfMLvBNIvp8PBaRGelsiBZyDlVgt/DO5fQElJl8SrH6Bp3ymztmp/Fe2rJXBNHjOTGSaAr15NE0/bRfyNVlpPDwu7v82WZFVwmbx4lA6neFTpljyn2uIM0e4OHrFSK0S5JTMIbnhkBLx8vO+Cm5AYAzevM9oEQLvLZn1LZDVwOe7WtsscbZlhR6Rp+NZjskzMKfDgDLa+EsS8wGU4xAqRCdygkEBERSdpufNfzzXXqpwlsgq4CQkXtTWHsRsbttnSyaK/p491dtP/E4lFDfY12zvMEvByD4fIDId8xdYSWALsJXHvlfQ02HWdi//7VFN07DbXYhGmyODyS/sOXK5dem9/6KiJe3qCnBtR5dOemD1vT7Y04WMykE2n2XhOwG1vPwMRUVF5gkvpZY6Z4DJTxZ+XL6dgzKStotoNDQtJSanGb75HRQZ31x4fQ7vLyzYYMWY9rlzJ0O2O9AapdsqIu97OboZmlh7TPbLpLOCWa4d2HafnCy49Zv/AgLvgMiSKiY3Euo0eWovmqEJLg0SLCO4d9B+ySnO6jLvMy1ABQZGanGeakMl+juNdufpYrsO9/rdRG7uZqpbtHGbnq5a1cG9MZJgk90zoKQE5GFU+6aVm0NL2liJL7ux5e+Ui22jnQ4v2U+EXeG+wCTNGrMK8JeqaniGzKtyK8VdXmB4F+r3VJDVl3XsZHKr8wA0KCVZ7S3D584T/CZwKjUC1bwyjgFetO2b85ntUZHBTLqSDfVisofKcnver9caCxfuzGXjucW30+zhdYbwQbslgluZ/MzX8dbTaywFDVyiwedV1CW7wyZC74BrYTV6Pl5BqhCZDxls4aaXI4JJYhOY5A9ztxwtmo5ytOAyhZ7k1wkBsiRk+er3GZlTjbENlv3Jyyv2OwD+dOD22Zt0hGl2Mn7JZt3jmlsQgE1y2upqD6+ruKhowGs1ac3hoO/Tpv1y+OXsa1irgmsjXLwxN20zWbgeqHG6XzHkwFKfAfd9gmG4eY0dC/UYj4XLM0Ebyv4XY0P9Fzf4aUSxcth8XU5MFXMvAki2BS8kNPXsGnbrP0+fYvuPs+/wZq4JLYhM1j6FROysXz8I0C/68IRPxDALOIH7pzU4qxdzwNHbS5kfmbIDiJm+J/9//rCdeeLGDmCcPpEpYYwlUE1sG1x1BwYHoM3CZzrJkTTtnrGt1cE3kcvyknnNHd58ri7vNc7a1sCngi2/7a4M7h5PwIKcTIv3/dNqyzVN3a7CJ0OV4AC5cynsHgiWb6+7prlmrP0caZlnV+WEErl/Lvme42MAlnU9O1Z1qnBnF1cUdCkNHrNO9tiZim4y9w1zd6kiQ2aU4Z8EeXPuL2mAeBnHKOsPDuj+OQGDIOR2MYglUE+cGrrePF4aNWq294twLnDNZVKzgkrx8QvHWR466ZYV2lsb/B/EUzQ9IpEO2cOlBVP2ir940T81uZz/rkTjhw9rETgzH3ovxf578Ax3E6Uw8f17Ay92ZIhNc8zjXBK6XrxeGjFim4LJ3LCPHbv9iBZcT0jjhjRL5xbcD0FlCppc4RLNMG7Gz3TFR3HfaaBP5BURo4oO2iA4ZT/ZcLfFb1u1/TuIjJeWyzqz893MtMXTUWmReS9fcsSVQTUxwzTNUd8EVyR0wdKGC+2XNAQ8XXEotVTH7mybP2KFj/DhtlZ4iW2bZDE9X3vfEPTtLp4q7Ed6panDI2OnXrdciREYV3z6eh0n+soDZgstdf1y4l69cyhdchknsn8oOrge8vD3Rb9D8u5LLBnxzKlZwnfosVlXM6Whx8dy4bIjDmKZkeVBn/wvIH0h8PHfRfrm4ezaDbay//D5edxQy8cEh1jv+4nN6rEHc4M5s3SdfOSM4JFy3lOQFLoE1rwrlBLeX8zwF95vaQ3QnvzkVG7hnBcCqX/bRGxlr7PPhOACO5Ll955a67dzzy90OHP9Dm9yhU3Y7e+FCOoaP2aDTxanKX36jMwYOXaV9yn9HMo1coslp0mKiHlWTV/KCzN9zM7a3r08Oh8oDHgJut56zdeB37R+GPzxveYqoVjpPPNc9WCtCdxAdY7hgto1cvGjYn0MJLlWRR8OItywL4Ytv+mP12uwFBo4y4jBP7iYoId/Z4JdROHz075f4SEy8pAue90szlX4lTZ5H/irZvM3GBK4HwfXykEhjukYijf4Y93Di3PT0q7oy/+uZZrDvOhc3b2XpGHiqF14sk+De4um5efihlsS/HDPPTFXVL3prsZ+nh9CjjDIbER8var13/6Wo+EZHVdMcbbB81ZFCDSD5q2n1eldUeN1wXj/Pf0hNu5CvvaUzZWqQMwGr4AqwdKpatp+g4La2nXHfTsViAZfbKDmkks6QqVqRdN6wbYI34x/gLzbES+zsRpR9xU6zWQcPB4jTEIYfxJOko0UA2Vm/Y9c9O8u5HEwAfCMxHSe3VvvGWb7v0djqkj/d0R2OT5ZsqV0qFy6m5TnV1cQUBmanzO2tCVw3Afen30ZoQYbbOjl/w5yKBVwO7GRn3+c16UilaGzHFciLZT8Q7YePSO7QUUt1EMinX/XTjkAS96Ey0VFZvGzmXllgGDRsDZIlhDARa8jMevEEa5469ncgHfv3WS+N4zmV4FbWtfuAzI0ZBlmSXFd3d9SoPUCeRXstyuQkq4N7Q/R+UwlveCwbExEkTgXnRXIVspPPUxwBqhQ7h2lql1n+ytl7u2e/QWVTggkkxwbw+BoWGZi24+tcrTlju0eVmDv/jyx4DlDhSWnpV1LzVcl8XhQGU+ejObh8hgcOu4gp66kRBafe5CSrg0tJpURxjN/8RYbDFOkVmuzt2bBzuuqOu7nh12ajUKpCB3TuvkDfl5Ni43jMzFJtJaEUc+Wzo4PSzvlMEVYYRvIwiI6Unq8rHj99CUYLsQlxBQKXz8scVBPTZ1m3cTc4TY/5+5277x9jZHVw94rEccP2i+IksQRIShHPmBueeLGnQ8+ITfbE0eOuqFlvkGajho26X6XcoztYxwKDlsha6aBujvLdWoipLn81cWc/CyOvSUjn5hkqmixTJdISoObM58W0Y06pJfue8Mb0ORvEseymDqmP7/2dplYHd9I0jq21ETAGIMHYkZcozhQPNOTFct8LVYrL0eO6AZnZq6kz8x+qzQIDh4pxUk1uTdiPIiWI1NaoPUSHkTKXfPPmTT2psyBSy/dYUslk/wBfDBy2COUq26vPEhZ+vxazOridus3XGi1d82uacbqD+ETDMaS8YFY3PL09cOjIUXz0RS9V33Pm7zN8uACUZYXx8A+TJkzZqt4stc1xt1PiXGblCyzZFAIRSEvgBgadgE3nKWquGjebqANncpJVwWWhgAcp/dezzTDYOGaXW/3VU465p2bugvs5bbONOAMFB/fvRKdOx+j4REYOXXssxM0bt3DhUv6xrYlzFgtMbPBZXPFTkxE6QoHbWC3F+1YFNyHhkrbQ/FeJZnelMSMzUw9K4sUS3ICgQL24I0eP4uMve6NURVvMEJv0TyMmFLr2XKBZtyri3ftLKHQHWfIc8k43kvmcwiLC5Tl53gcsmfZ209Z9+PybvlpcmTbLslmzKrgcic8iwTMSpqzb5K6vpV9Jv+s88KK5Ggmuy/HjqP6ds3YRjJlQ+GFjjzpx7ATH+TGMGz3BMAytoFJrMl+W1DHZP9AXcxZs0oFjr+oeX8MgspxkVXA5APrdqj30IGDTMeapaakCbuTdi+a2CMa4x1zdJHYdptmonv2W6XuLgy6nX4XPiXNaaqTXOmrsJgwZvk551NgNOl1mvfyO5cm8RhAUhiKjkvH194NUqjiIJeXiZWTdvqX3nxPInMz3GHIBXhbBZcHA189b67hPv8CZIAMRYzwJPCdZFdxDnC38TlfdMX7MOMLuwsWL2STXBC6zK606TFRwf285Sd5pvRwxm97XrndFx67z9CEz7ub0F44UfLpUSzz1XHM8LVxCbCEny1V+s7O+hxPabB3mYvW64w9cP6Y3zLj9mbIcfNpFfAvDxBlDOJh/+EP/JC+pZaRBwWjcfIzuWGjaerJ+vyWyKrh7DwRowoGFdk9vQ9yVkpKsMS4v3AQuL9LLxxO9B8zTDFX1WoOMk9mLRu6iOfoPXaUjlhhiMXNTokwbvCCgvi/XVLv+UNRtMhY1mozDZ7+MwUcNR+DdmgNRuUo3AbkdXijbFqUl7uaJnlXFEXIetByuhTzUmWP6uYWGi5bnBJGuX79WYA+Z5b3cpJbsfcILO3Yf1F6zsi/bYvK0Hfo3LJFVwaXur/haR7wnUuDta0hgnBdwTTdGcE15Ur8AH3EE1qGUhAn6/iIcnnwmNA5OfZfohqh/P9dCc63vfNAdjf8Yh5ETN2POZg+M3xuAwQdPov+xUPQ5fg7d5afDoVPouDsAHdZ7ofncA6jXd7kC/oqAXbZiezwjkv3mh45w7L0IISfzHo1I4qY4TqVjabJF2ym6KY6UmJRUYFvLipklD9nEPgLu5GlrdfsOuzm8fe4fk2giq4K7R+ysQXKd4Gn8o7mBe8LfB2vW79ZxdyzU88jwwhKL0/MXHVBJZccHe7W+rNkfI0eshYtojsOxlzD7bDKGn0nGoJNJ6BUQr9w32DDbsm9QgnK/kEQ4hySht38snNwj0H6tB75zmK8neZYR6S9Zvi0+qtYLcyVky207Ksch8qQwNid8+e1AXXAkTb1GFwxYk4ecm9TSnJ0Qe9u6wwTVDIxMUvPY5G5dm3skCK+87YDX3+8mF2iwuTyrzhxcUzqNavnQkWP44dfh+PfzLcVOzdPqUUEpNi5FG+6oAllEePdjJ4wZuxHh4Qk4nXkDs8IuoMeJWDj6GE4I68n50YEJ6H0iRiXW4eApHTvcJzAevf3uTartI//uK68RfNstXgLyXLz6gahtUe1l5W/ZOcwRsLI7MMyefVefx6y21j3KR4yT3Wh/qWoLKrWWqj/mzIa4PXsPyQJ2xn9KtdYulbwO/rAquG4eoaoa6aLvOxigr10wcyR4A+ad83TpHXvP0hG+TFdGWDhh2hKxFYcT2gkqQynumAvyDwc7nbclXtYTSHgaGH8StD7+cfrz9xl78UmjMXi7ujPeEf600Wg0mbJLQL73HhMTaALcyycSzebtRdUfhunpJc+JDWdjQVCw4STv8MhENPhlpALLwyDXbzScbU+i1ipoDpmT0flM8gKXWamxk1bqQG5qyIMiTHmRVcENCokR1eSsWzoZepAupV7K5i2zcGC6WKrmhUu24E2xj8+Vb49Va+/fhpiTaPu+rTdUOza4iFh0uCrOWJoI/YwzSQoqzw+6C5JIKn/WF3v6sryfp4CVKN1KubSo25ckbKvdfbHhvUYJNuc+fnHyegxst3vquQnqdYsJYNvPxi3u+LXpODUHvBZuhjPR5fR0ROXTQkPmM6Fkc/dAXrbWVCZt0Xa8ajq2x+Y3d8Sq4DLeqlXvT/zPs83FFhpsKG/SHFzaFcZqvGAtOLu5o96PQ3WEAMfr5+zgM6dzonJ5yvQzEj/yrFrT3zh/IwvjguP1cEaTtJq4n9jSP0RiX3rVTr1gHkxBEBYuPSQmYYyo2g7yO3s0mbRT1bGlY2p4ylhPnwh03OeDes5LtGGvXCVbHQ/BHY0Meeglm05wuSbeMe/V1DOWF/N9lvYB5eQTfj5Yu2GX+Cjdta0mr+FiJrIquDxn6OffxuiBisNHbzC+lpnN5hJo80oH221GjF2mThW9v/0STlkiHmT1e4tJ2gVZ+e3OWLbScAT45VtZmHzSAGxOUGg/ndzC8UXTCSglapOHZZhv/OaGtJ8aj1GnqeoPI9DTK0rPdsj5PcoCuqPbWQWYp4ZVFkA52Zb7krk9xEQ89zYhyVAoyQlkTjYt9rycKDKFweeEN3o7zxVHqoPOGgk5lb/3blVwSRzkwWGbNp3m6EkfHCOb06kwH97B/S779h8WD9NQhOdYfvP+ZRI7IQcPX6OncnER8JwjfV0csGXnzutxqDkllkwHqvPeYLz9RV+xlzYqXTmJQ7epZt/4rBe67A+5z/ZmY7HNDmLn7Pd4om6vharmee7A0BFrjN8mWiS54HaWP82fRW5M53P/wSPilzhL7N5enLq58pfydz6tDu4oCdypNrgxiSeXkBKS7jVe86ZMswx54e7CfmJ7h45cohUijlbg7j9zYohFW8cd5E69F9/t8juamIZuXrSxFoAQpprtvCcYb33RR8GdM3+vfs6c2CTOs4jerNYbXfblB24MenhF6Jm7tjvcUL3NZD09jBpn23ZDjfl88vkCg8vnkJ86JvsH+IhvsQQVeGLZK/baTFgQsjq4PGKFQDBpzqEnJB4darphSjFbR0x2l8yWkQOHj4k9HaKeMx2mOOO5A6mpV7VPmU7LdxLXJRob6RIl3Bkican5qdc5mWrZ0TUMn/02HiVFLf8oKjjlwr1GO54Ywn2tVMsf1R8uwEVadKrMmQdO8QAqHoLRRo+uGahnJ3AOV0pKmu5rMmgqy6CSC6qOyd4itYddjqF2w8FaJ/9DIoP0K/fXbi2R1cFlXxMTE+zGWL7ScM5A+tUr2W6OUmy+PcJVmBmr6bPX6fFyTEn26m8oJswTp4ljkNhKsm3XvdaateEpFu1sNhY12i84Cb9N3qXHz5QXFcrm7QVLDqpDxf3A5USiX6xsi1/Hbzc6VBa+x5xFeu8eOrXPGz+NXqNtRcxbswhBuiL3a0q55mQCy/vPuffHEtM7ZsfFmIkr1BypVtuc+wkxOcnq4NLO8gwBAsTDnUhUo6abMt1gzuQ4PWfufbHtPFW3R7xWpSvGTd6i4wZ5khYPKrx+3WCLo65eR38JcXi+vEUAzJiSSHtcu/siVJQHRAmmI8QjcvTfL9viuy4L0EMWCiXd0nfkZDpdXQ+fhO1Od2EPfCYxd2kB96tag+5qltycKkp1XoUBc6atPXj4KL6tP0hi+rZ6SviVqwWfKW11cEljJ27RZjZWWaiqSElii8zBZVkrp1pi3nTfARfUkpthcoK7C3ieEUONPXdrlnewMfJi/lJrxgSNJ2P/Om6bJjFe/6SXcE98/PMo/DJ2K3rKd/XNy9bmYD1zySMcdru8VD03nrxZpZeJfJMXzzp2TnAJLJMVNEkFAZe+yJ/iixiktiM2b/PQ7y4oFQu4PFiBBzXxDB/Twf3pV65ku1kCbCnd5ufvLR7sDlT9opfeENX7L03v7YNJFls7IiAuT1triSnBzCF3P3YOdtv9YL/NH91dzqKvvJafnc2NO4mjxzMCbba4ouqPw1BKtNVvzSdoSpBsHiXwflnxya3hLSf7+npjx+5D+PybfnpQVLM2U8CTxgtDxQIut0rQCfqfEs3g2Gex9vcwnDF3NHizlnpyaWdof0dPWKnHinKRcH6kidyT0zULZelhF4TpDfdjsUA4T884PxbHqvvR07Dd5qbec73+S8Qxa48PqvXJ5kgSXN4r77kgYQ+ZJoparIvjDC0QcNfF4aN5n0RiiYoFXNLIcZs04cAOex5MRbpw6V7h3sSWHAsmNiZMXa1lLc7TYKMZKUtCu8US13YrArjWYlXN7mGw2+GpiY2mc3biNXEkmQWbv/iQXu8Vo7YiuAW1s2S/AG8sWroFr7/fVatd3OfMzXSFpWID94RfuJ7YyS77WfMMXuT1G9f1Rs1VVc6EOSWXbSTt7CejpDwoHlhlGmGUdjMLQ0Ql9zA+3L+UjZmsTntPCMAeaL/xmBYXni7RHD2dl2qOgZ2f3I+cV4tqTqYT5XLsuNz3cHVKeU4xq04PQsUGLu7c0UOXWbjmnh/TGbnmJUATm9teOhtUS7V/GKKVFh5dbmrbDDifii6HgtH5UBAcDgc/EswjW1U1H/BF9bZT8Jw4kr+1mGSc9XFH77WgDhTf5+fng34DOW7RHqUlTFuwpPB1bhMVH7hCBw4HaGzGFN2ipYZ9QwxnYszaOym9DOg9vQytJVy5e/Yfxhc1++E/JVtrgdxEm05Fo+3m4+iw1RU2jwoLsLbb3dH5oC/q9FyoR6Gzb8tU8z156qSO0LUEZk6mr7Fk+TYtDnCHQmub6fK8HnyjW7GCS+IOBIZFlN7UNIP03r59XaempaWTL+DylYuivqIQFOyHM6EB2LbzAKp+yTmSrbHfWBcmzT8Zifb7vEVyTzxy3M01EI3GrkdFNtt97CQL1wBuRESopg95b3nxqdMBGtN+12CwquOadYZoQ0JRyGrgMnhfttIFI8ZuFF6vZ8iPnrBZXPjJWjlhzNpW1PRocbSGjVwr6nYp+g1eouw8WP49aDG69Zyl3KLdBLzxATc42evQ6VHymZHjNuKn7nNR3W661lUfNf6280xNZlSSmJzdKNxeymt27D1XvV4Hp5l5Mu/7599Hav6YrcF1xH6Pn7wNS1YcfmCQrQLu/kMBOoW0bCU7PQKVhyqYmN4e1TLjVUowG9j4HlaOcvJTpVrjSWF62Xw/a6WU3n+bvks+/7z8/1HlUnKvbPthupR5YF4zf3I/T35suO+2+lneN/cX8Tnx31TzlrZo5kdFBjcgKEJH3hMEzpxiurBx0wm6Z4j8K7mpkY2v3X09L36QzzwKnOO67/t9fmz8PJ8hnyVnVjH1yHMLLR0InRcVCVzmjHv3X6ad9R8JwNt3+eh4g7S0DK3mPOYHZz7Di5euYt/BQMOG87JtdMxRYahI4LKRnF1/VCGcD2UiFugfcxH4zi1cu5GJjMwruHEzA0NHrtbiCZ3Swmx5KRK4bNDicWO0M6aZDOx2ZA6VmajH/GDMxjq2ADOEOuHvjeFjlqo/UrPOYMTHF/x8/SKBy4ZoznoguKYtm+fNCvOP+cGYsb+paY7tv8NGC7hi+hgese+roGR1cJMfg1tkJrim00geg/sPYgJrKg3yHIO/FFxOmTG3uSzCs9LDHfSP+cHYfIhnQNAJbf19UsDl5FrD9NuCUZHAvXz5Kmo1MHrLf67W1yKiwuDqcRyce/GYH5Q9NcfOmq5fgC+c+sxWh6qWRCZp8swLSkUClwX43s5LNYHx4ed9dOpbWFgkDhxy0T7bA4/5wfgQ2UU3ys2YswEfVOupmT5uJi8MFQlcUmBgpO5KZ2mPGaraPwxD3Z/+xHcNBj3mIvD3DQejRp0B+kxZSKjyaQ+R5IeYoTLRgUOB+Oq7gZoHZWMbmTvbH/ODsz5DY36dfk3OY3sKQlYBl8SpqyvXHhXPbj3+HLVOmD8f84PzOnmWG7B89RGdp/kgZDVwH9OjR4/B/QfTY3D/wfQY3H8wPQb3H0vA/wcjTj9J2JI/nwAAAABJRU5ErkJggg==;" vertex="1" parent="1">
          <mxGeometry x="420" y="10" width="119" height="135" as="geometry" />
        </mxCell>
        <mxCell id="cAr-tdFP_zZSeBQopmbQ-5" value="" style="shape=image;verticalLabelPosition=bottom;labelBackgroundColor=default;verticalAlign=top;aspect=fixed;imageAspect=0;image=https://cdn-icons-png.flaticon.com/512/9850/9850812.png;" vertex="1" parent="1">
          <mxGeometry x="770" y="80" width="92" height="92" as="geometry" />
        </mxCell>
        <mxCell id="cAr-tdFP_zZSeBQopmbQ-8" value="" style="endArrow=classic;html=1;rounded=0;entryX=0.625;entryY=0;entryDx=0;entryDy=0;strokeWidth=3;entryPerimeter=0;" edge="1" parent="1">
          <mxGeometry relative="1" as="geometry">
            <mxPoint x="620" y="160" as="sourcePoint" />
            <mxPoint x="530" y="270" as="targetPoint" />
          </mxGeometry>
        </mxCell>
        <mxCell id="cAr-tdFP_zZSeBQopmbQ-9" value="" style="shape=message;html=1;outlineConnect=0;" vertex="1" parent="cAr-tdFP_zZSeBQopmbQ-8">
          <mxGeometry width="20" height="14" relative="1" as="geometry">
            <mxPoint x="-10" y="-7" as="offset" />
          </mxGeometry>
        </mxCell>
        <mxCell id="cAr-tdFP_zZSeBQopmbQ-10" value="" style="endArrow=classic;html=1;rounded=0;strokeWidth=3;entryX=1;entryY=0.25;entryDx=0;entryDy=0;" edge="1" parent="1">
          <mxGeometry relative="1" as="geometry">
            <mxPoint x="710" y="190" as="sourcePoint" />
            <mxPoint x="560" y="290" as="targetPoint" />
          </mxGeometry>
        </mxCell>
        <mxCell id="cAr-tdFP_zZSeBQopmbQ-11" value="" style="shape=message;html=1;outlineConnect=0;" vertex="1" parent="cAr-tdFP_zZSeBQopmbQ-10">
          <mxGeometry width="20" height="14" relative="1" as="geometry">
            <mxPoint x="-10" y="-7" as="offset" />
          </mxGeometry>
        </mxCell>
        <mxCell id="cAr-tdFP_zZSeBQopmbQ-18" value="" style="shape=image;verticalLabelPosition=bottom;labelBackgroundColor=default;verticalAlign=top;aspect=fixed;imageAspect=0;image=https://t4.ftcdn.net/jpg/00/86/93/33/360_F_86933302_Gc6c06qy88sAdXJUNvl0MGDToolbWyLd.jpg;" vertex="1" parent="1">
          <mxGeometry x="140" y="42.43" width="260" height="167.14" as="geometry" />
        </mxCell>
        <mxCell id="cAr-tdFP_zZSeBQopmbQ-12" value="" style="endArrow=classic;html=1;rounded=0;entryX=0.25;entryY=0;entryDx=0;entryDy=0;strokeWidth=3;" edge="1" parent="1">
          <mxGeometry relative="1" as="geometry">
            <mxPoint x="480" y="160" as="sourcePoint" />
            <mxPoint x="500" y="270" as="targetPoint" />
          </mxGeometry>
        </mxCell>
        <mxCell id="cAr-tdFP_zZSeBQopmbQ-13" value="" style="shape=message;html=1;outlineConnect=0;" vertex="1" parent="cAr-tdFP_zZSeBQopmbQ-12">
          <mxGeometry width="20" height="14" relative="1" as="geometry">
            <mxPoint x="-10" y="-7" as="offset" />
          </mxGeometry>
        </mxCell>
        <mxCell id="cAr-tdFP_zZSeBQopmbQ-14" value="" style="endArrow=classic;html=1;rounded=0;entryX=0;entryY=0.25;entryDx=0;entryDy=0;strokeWidth=3;" edge="1" parent="1" source="cAr-tdFP_zZSeBQopmbQ-18">
          <mxGeometry relative="1" as="geometry">
            <mxPoint x="390" y="290" as="sourcePoint" />
            <mxPoint x="480" y="290" as="targetPoint" />
          </mxGeometry>
        </mxCell>
        <mxCell id="cAr-tdFP_zZSeBQopmbQ-15" value="" style="shape=message;html=1;outlineConnect=0;" vertex="1" parent="cAr-tdFP_zZSeBQopmbQ-14">
          <mxGeometry width="20" height="14" relative="1" as="geometry">
            <mxPoint x="-10" y="-7" as="offset" />
          </mxGeometry>
        </mxCell>
        <mxCell id="N2-TDpayMP2dwZPG7_H5-1" value="" style="shape=image;verticalLabelPosition=bottom;labelBackgroundColor=default;verticalAlign=top;aspect=fixed;imageAspect=0;image=https://cdn-icons-png.flaticon.com/512/9850/9850812.png;" vertex="1" parent="1">
          <mxGeometry x="59" y="399" width="92" height="92" as="geometry" />
        </mxCell>
        <mxCell id="N2-TDpayMP2dwZPG7_H5-2" value="" style="shape=image;verticalLabelPosition=bottom;labelBackgroundColor=default;verticalAlign=top;aspect=fixed;imageAspect=0;image=data:image/png,iVBORw0KGgoAAAANSUhEUgAAAGQAAABcCAYAAACYyxCUAAAAAXNSR0IArs4c6QAAAARnQU1BAACxjwv8YQUAAAAJcEhZcwAAFxEAABcRAcom8z8AADTdSURBVHhe7X0HVJTZlu6duXfmzVrvvbXu3NvdhjbnHDG3ioEgoogiOVQVRRQTYgbBrBjbnGMbMOccUcw5IyIoxjZiQPL3vn2qCGKhaKv3zrzZrL2qqD/U/5/v7L2/fc4+f/0J/yP/VPI/gPyTyX9LQLKzspCWlo63b9/h1eu3eJH8hvoaL/lePktNTUcW9/lnlP8WgLx58xY3Yu9g3+GzmLNkG0LHLIFfyFQ46kfB2nkY2toPpA6AleNQdNeNhG/wJAwZuRAzFmzC7gOnce1GApJfvzaeLU+y+fe95b8sIOmZmTh59jqmz9kEfa/JaNExGGUaeKBEHTeUrq9B+YZaVGykQ+XG3qjcRGvQxhpUaOSFcmYa7qtFSe5bpr4bmln3gWfQBEyavRYxJy8jLT3D+C3fX/7LAfL06Qus3XQAnoFj0dCqF36q5Yqfqjuh1i8+aNM5GI7uQzGg30TMjFyMqHlrsX3FJuxZswW7qTtWbsS6hVGYPWkhBg+YCBfNULS364c6rfxRrJYLitV0Rv12QXD1H43f1uzBw9+fGL/1+8l/GUAeP0vGwlU70dl1KCo11qJ4XU9UbeYNJ69hGDdyNnau3IQ7J44h7eZl4NZ1IJ6aQE28kacJ+ZTbM2Ov4f7J09gXtQkTx8yGuzYcNZrraWXuKN/YCx2cBmLesu148Pip8SpExI196MpSGLOep7xFZjZjU85mvmZlf57b+6cHJCs7A1t2H4ejbgRK1XfHz3RHza2CMHTQFBxavwPPz58F7scDSTeB2wTg1lUgLkevADcLqIB0J477UwWk+Gv8P5bniMPLi+cRs2kXwsOmoblND7ozLUrV84Cd5zBs2BaD9IzCXdmLd2lISk5Ganam8RNeO4lDanraZ0Wif2pAkh4+xaAR81GrpS+K13JGE4sgjBw2E9cOHkF2HBtSGlV6+82ryKbmNnpsvvf59dY1XN13EKvmrcbBjbvx+5nTypqyBbxE6l2e6x7PeesG4g4dx7gRs/GLdS+UqO2OqrScPmGzkXD3ofHq3hexjAyqMggjAmmMc8/fvPnvAcjR45fRxT0M5Rp4MT7o0Zdx4RIbU3qy0ju0CAEjUdySUW/zfwKVQcvIkkZ+DwyCxsZ304Thx1pu+LmeGwICRyGd4GXTfcVFH8XzS5cM1iNWlsDzJ8bhwt5D6BM8EVWaeqNEXQ2sHQdj/+EzxqukfMQlJaem4c7LZAWMSFG81zcB5O7DJ7h0IxFXb975LL0WdxexCfexLGoPmlr2RgUzHeqYB2Lg0Bk4t+cAEo4fw5WD0bh84Aiu7I9WenX/YVzZd4hWE43HZ9lQCeKC2JhiQfkBEffFhp8/dTmsuvRFw3aB6NV7PDLp5g6s34Y2dv3h4DYUi6f/hnfXGIfu0o0l8jy0wlSCFjV/Ddp1CiYoHmjQJgBLVu1izy88l8mgu3r48jVuPXuJp29S6HqNGz4hXwGQ97/pwtV4tLMPQc1ffFGntT/qFkHVfuYBZDiBaNg2CDVa+KJiUy2qkTnVbKmHWXt/fu7HffXcV87ry/fyvx8Zki/qtfJB3VZ62HQbiNlTliGW4KjGvEuV3q5AkVcq3dab65fx4OQpvLnChmf82MOg3qCtP/5a3QW1aY3RG3bgKs9x//gJg8WItdyNx5UDB6HVD0MZI6GYNGsNUtPSDDfO7i9/GZlZeMsAf//VK9wmEUl89oqajMdv3iGFdDqTQEmgLwyfrwBIXi95m5oKn76TULqeJxvSB/XbBqBeG3+qXyEq29jYBKIRtQYBqNLMV6kZPzdrb/i8IXtkfQGM2sCoOf/X57YGPFctglOeFlWSjfWLTTDChk7Hsa17kBFLMBLZ2yXgC/O6TcuJj6X7YiPfpiZcRSat6eS2XRg7fDamjFuAlfNXo565Dzo7DcLWFVvzAj8BfnLuLAb2n0br1aJsI3eMm7aaeUu6uv9UBv1nb1OQ8OIlLeMFEp6/VO9vP09WlpLE98nvUpQLK4x9fSULMZx8cdQuVGyiQe2Wfli75RASkx4hLuERbiY8LFRvcXsC9xs6bgkqN9UxmfPCwAFTcPVQDG4dicHNw0c+obLfMbq0Q4gcPRdWXfuhfCMt8xM3NGjXA36BY7Bt5Va8IIO6R6uYNnEJXL3CYO8yCH37TsDBDdsZQ9jgwtTiJSbdxNEtu9GYVlm8jgct3Q/DI2bj6cWLKqZI3Eq5fgXDQ6exAzDRJD2ePn+9uv9sNrJYQGp6Jh4nv0UCQYknCAkvkvFUhmwIhLgyBUYhJvLVXFZs3B2VmJVggjV0zEJeWB79+5TsOngSjaxIM9nrBvSbgOTLF+i72SOlV0rvVsrGUjkEe7XECHFJKr8wblOB/QbunzqNZTOWw10XToD1pMoedC96ghAOe9dQVGnkSTrrwWzeFeUbeNJV+mLOtCXIyqHMtB6xpPMEOCBgDDuIFuUaekHrHc7Af4xWIoTiBt7cuISIoVNIOjSo2cIPq9fvN96NQTLoOB4mv0EcreRZyrsPAfh2gADv6Kr6hs5QYFg6Dcbtu4+MWz4tl67eQmsCWZLB0sd3JJ5dkJ7IRskfkHM0jo2m/LmAwX0YDyAuKXc7VRqW1PXFhXPYtWYbA/cENKbbq9zEm2BoUc8qGA6jNkA3fR/a+kxC5UbeMGvnR6vYpUDNVueR2MJGpyXMmrQYDUksSpCVdXYcgIt7yPTu3OJ1XMerKxfRu884lKznxQ7VEydO81glhtZ+k5qBuy9eKavIlUKAyJGvAsjabYdICzX0/d5Yt/2w8dNPfDMl+dUbeAVFkue7oYNDCF3PUUNj5zRwrrKBxDpIWxOOHsPlvYdxOzoGWSo+8HPjftKYWUZVwDCvSI+7gY1LN5Ot+akY5TPvKMYSy4ls0/CjT2DuFYly9dwxZMhUQ0MrgC8jO5YdQ2IOrXT7qvX4pUMfFGdstO3Wj6yOpIGACYBJp06iu/tQFK/tiW7aCNzPl9WnM8A/p6vKL9Iq4tYK8yB/GJC79P/WTgNRso47gofOzs1m34dD/jOwEIMY3s9ctBnlmA3Xax2IvWsYPMVN3WQuII2ilA0jjcsbv3f8NEaGT0eHLgPQpE0QrGz7YfCgyYg9RDdC96USReP+Chjp5bESjONwZOM21GbQb2DTH2ExLzGRbTmGp53AsOE0dgNKVneAhi5J5TFGViaJpko25f+keBzduAOtO/Whpbijm8sA3Dl+XJ0bd2/h9La9TFp7qKx+1OQVjBEGi5BYUXCg8q3El9ev8Yj6imysYLf9Q4DIFw8ZPY+9wxWtu4Qg9maSccun5er122jWoTcDoxYTGYzVzcWzlWQcSho3R9lDH5w5C0/NcJStp0WVJnpUJwWu1sSH9FMLu+6DcZPBP9fdFFRa1qnt+1GPRKNmyx7ovf4apiQAkwnG2Evp6NhrNkrXcaLrieR30UIEyILnkCSToBxctw1NrHujJGNQj55j8foqY51YLq9xzq9LUb6xlvS5B44cp3UZRc27GFtdsvnH9ArJdPFCgR/xfWrm+4D9IUB2HjiNGswTypFpLI7aafxUpCDuNN+MdHL0DAViyrs0BIfOYcD1QmfnwbhP9pPNG8u4cYU09SpfmW1TM2OvI5PMZ8LoOahoRkps5Y3ik8zw1+3l8NOsuqjSyQsVGvhi8IDJdFNsNIkxBRuTDErGqJxdhqA8v6+l60gELj2N4M2xcIiIYq5DV9ZCj83LyZQSxWUZLOQDVZYSh7UL15FF+qJSIx1mTligwJDO8OLyeXjow1Gstgv0vSYhJSXVeOcUY3OoZJH5SbrRXQk4KenGPMYoXwzIwyfPYecRjp9reiIgZArevsvvK7N4DQazfcakaMSEFdD3nQr//r8iaMA06HtPQv32QYw5PrC0H4ieQWMQGDQWgT34qnSc0h495LNINGMgrtHIHyXHNcNf4v8df779J/xr4l8ISn1UJ1BtOgbjMa0I8SYaUwI9A/ChDXvQnEyubD1XUnNfVG8ZiLJkSOUa6zBowFS8Y7JocFeFACJxjOBmM3cZO3wO2ZUHGrbvgZNbSQYEFIK1lySiNpPWqrSUrTuZVBYQweXFu1RS4td0W2/w7PVbAwXOJ18MyNjJK0kdPdGMJnz+CnuWCRFzHc39SjG+/K1ad/y1Snf8VMOZeYI3A6wfKjFn+ZkN9LcaLvhbdVf8vcaH+kM1Z8WQajcLwI/La+DPd/6Ev1z9X/hz4p/w161lFajNrfrgNoO9SvpMNaa4Pvb+Y5v3wNcvAuY2fdDSqhc6OgzCzMiFeHXpvIEEmDrWqIaYwvdkd4/On4MDc5nidVzhS2r8RoZa7lxHBgEN6hlJF+4OPV9fvUkxtkSeSK7yllbxmhm+qeTwiwA5fOyiGs8p28ALMxdvVJ8ZAvb7X7B97wlydPYYNlrf0JmYNm8DBkTMo5vwRd1WAegXMgnTI+dh0rh5mDz2Q51KncIGk2Svuhm/b4AF/uPqf+DfCMZ/3Px3/DyiFao09IUV49fzC9KohQAiBEHiAN1iOt3gzUNHcXnXQTw9c46fsXcXdlwBFVanAj3Jx46ozQbXxc6yZfkmfiZ0/AYOr9upJryqN9fjyEkeV1A+xOA9yQNE7ZjDhApT4Hdmn84+o9nTXeERMBbJNL1cydtNDVNbOQ5CyZpu8O0zCelGtrFy7W6UNfOEZdf+5PHsWb/fBR4wyj64bVqf3sXKOSvoBrxRmYG5TLAFik2vh1KD2qJqWz1jixZTx883ZNsFR3hN6S2qBGKhy8ZjTJIBkyoBn9/Bc2TcvI7A3mPVHI2n93C8vkJ2yEw+hffkQcb2M9njoJGMMZ8pRkCMrVgEmTZvI0qT3on/jCnQAwxnyUYq6Vxw2Cw189a6c39cj72jtqTQfzp4R6i57wnCrFR2XPCm81Q1VPxlvL52BWGhU1GFoJSv68Ne6cMArUflhrS8PuPxRFlHISzrW6gAT0APb96J6q38UKulvxoxNowY3MTyeVGMVe5oz0734Pfn6t6LKrmAvEh+hcMxF7Bj3wnsPnDyA91z6DSWrtuDptZ9UKahBybOjDIcakKWrNmtCgqqNtVh7aZDxk+B05duokH73qjRTI8TEgxNJoH5VfIK9jzmB2+ZNa9ZuAZBQePg5BYKP/ru5bNWqDEq6fHfDQxqtgrwvKbL56DzHc446IV+AyYa3B/v6cbBg2jBGFWthR82bGdm/xmS67LmMkmr0MAT1ej7qv/i/YFWI70Vf/kzM9KuzEgfPX1hPPJ9OX8plvlFT5UoDhk5H5nGyRmROUu2MO/wRlfXMDw9fcrQo0zdsPLVZDQqkF41ZN7CgO7GIvXaBTwho0q5whxA5izE7ShX8uF5TGlOJi+qGtZ4rNBmw/cV5VyyD7+XzGr1vBUExJPWMBD3Yk4yuBsGHwOCJihSEhG5yHj3RZNcQDZtOwILJlkWTmGwcvlQrV1CYe0YCnvPYTiUm/gIvc2T5FevoQkcT1fljE7uw3DvYV7VhhCKnoOm48eq3TF08K/IkmEJRTPfv1kFgCRnt6kyiJhEBicDere5r7gKAUDmxSUQm5oz/4TmgKHOI8nog0RDrGLGrdynEIB8+39UaQ3X9h5E6w59aA2+2LZ8nQr4MnI8gzlKMbJHN/8xqlivqKIAkUCelZ2JB4+f4DaDceK9Ryb0AQP1fTz+/Zk60CA5JMAgMmFTpqEn6rTxx/5o5gX55DldYlfdaFqYM5bS1ahGMNUbhaLSBT08fRIbFkdh1qRFWD1/JZKOMRsXgEyA+DmqXBvP/+rSWaxbuBoR4TMQEfYrVs5dhSfnxGrZoOwUpo79QHkt6QTQx280fiCdHz96tqED3YvDrpXrUYvUvqXdAMZQgl5EybWQL5UcOPYdPo+6rQMU65g8a7XxU4pxhyux8WjVOQT1uM/h9TJuZYgfOb5f5sCzVRIXi12rN8PGYSCqsteVbuSFKnSjlnYhBGiNaszsQoiAoqTq/SXleuTc7yu3M7GTnEWnj0C1pj74sZYXfqjlgUpN/eDE3OLKfsY8Aq+uR53rE0prGBUxUw0f6QPHkW3J1EE8qfURtLENRrVmvog+xjhYRPnDgIgk0TXZuoep2Tqf4Il48zYfFTZK9PELNGtvmPMi4w5FG6o7ZDBPmJaouKGkGzixbReaWgSiXH0dmlr1hKNnBFqSSJRqpEVD8wDsX7NZMRlTjaMKG5Rbk/PmO3eO0sWk0r9LMleqnhb12+jQq7cW/fto0KydnuzRBy6acOY0tG6CngfwR5TnjFoQhcokKrbOQ3Dv2HHlYl+RBts7DUbxmi7YsOWIsRU+LZ8E5G1KKm4n3kdcfBLiEu4h7vY9xPM1Z6gkNS0DA0bOJZX1JBXuRVZxFEn3f1f7qf2p9x78jvlLtyl31s5+AGI27kb80SO4wV4Uq/Qobh2OVv/79xjL/XSw6z4IOxdvQezWIziwbAec3cLwMxNRnX4E0m+ysU25LlqYkIHEmONkOoeN587TeH6+ZuE6Jm0BqGuux9pZLkg71wXZF+2wY54TmrTVoQqZ0ZqFZJC0kiJZCF3ciS07Ua9tDzS37oXrB9jZGEekwsVLO0zla3MW0yMoyTcvUoh8EpDRk1egJrl2w/aBMLMIUvlHbWaioyYvU9u37oxRZZzV6V7qmQeiMQOcmUUvmLUPUvsrtQxS8+u1ydfr0GXJORq1C1Dz5aJmxteG7XqgJpO/qs11WDDxNzw5chb3ScNfHr2AldNWo0JjHdp17mcY+pYen9MoscZYRHe3ev5qNLHkd/D7cs6fq7yHOrSyys0CSJ29kHLcHrjYCbjUEZkn7RHg54XidXwxJmKGcjsCbu53FKa07NgDB5kO9EKNFj44s3O/OlYm0gJ7jFLDK6N/XUXP/WkwRD4JSMT4hSjdwA0VmniichMvVGrshfLMQ8LHGrLQdVsPokZzX16MH2qzsWuQIldsolXjVLK/qExeyYiqxBgBs0pTX1TlPlLrJJNalZtpmbNoUa2JHlV4vHy2cEoUnkSfwb29MXhx9CxWzVyDSo00aN+pL+7EHFOxRBrE4OvJ+u5ex+V90WjdMRjlzLxQ0Xju95SfVWumQ6XmPdC5uw7PorsB12wY4GyRHNMFnlodStbzVXPzSEog/S6CyyL7SzgaQ0B6qwHHo0wWcY+EhYD06RtJN+6GsMjFyMoqvOoxv3wUEBkIe/HyNa5cv4MLVxNw8VqCer107TZeJhvK98V19R08mxfjSavohTVbjyI2/p7aV+n1BMTeSsLoKStRsrYL7JmDXNh7BJf2HsL5vQeo+1Ux2uU9h/n+EPR+I1GuoQbdXYbi8KrduL0zGjFRe+HlFUHC4MlGG6aK23JdlryntaRcv0buPwYl6rrDxnEQDmzchit0W4bvMOgVxq6tKzegvjk7BYnCuDB3PDjghEeHu2HGKFfUbOFJK5Y4RRdDV1SkGBJ/FY/OnGFH6IOK7KinduzNtZB+IRPxMwEJHbfw6wBSVElIfABLx4FqSKVP6ExkZnw4PblszV78vVo3VdCMRF5wThGDUgZpeX14C9GbdqMBaXNZBnFz3qRWNxIWnULUCHHtVj7YumILj6d15OQg8sogv2zGKlSkSxMLVXMbD9lLc89vVBKJbLqYkaS6Arokuu06ecPCTkcr9UHZ+h4YFDIJaZKLFJleGxLKrcvXYPmclXgt1Y9yLN1nn96RaqR7+PilKq0oivxxQIy0duvuE6qorXxDL8xcaBgBzi+/rTuAn2q5wMFtCJLloiUxfO/GGAfiLqlKwg2L16G1bR9UoJsp09ibsUOPFnQJy2avRqZUheRPCNnQl2lZUoslo8+DB09FpiSWhTUoE8pkMqBxo+aiMeNc1Wb+qNzcHw0YY8LCZuGFcVzM5LEmVMBQiaYkr0nsBBLPBNCEOPj5j1J1wZEzZJgpJ0HIy9tMSS4gL5llHzt5BQeY0B1gEC2o+6LP4xaZ08dk5JTlpJPuaMBAfuwUGySfbNx1TLEsm279kUS2g9ts2Nwbk5uQwgK+l0oSUtZExonls5Zj/MgZWDx9KW4elvkOSQxlSEWO4X7MtlOuX4Zv4HiUomvoxNwlSaoN1ZCMaUCypcEIShZprUz9bl26EVsWr8X1g0cYj+S7BQzJYXKO5/5KCzkf1TDswv9jJf/hfmRYmXE34KoJU8Mn83/bYWwFkSICMpcUs2RNV7oddxWc3lOpY6JvtnIczHhw13jEh/LseTKcfEaoKhJH3Sg1VJ8jh5mH1Gnth1869MXFXWQiiXLjpm9S5RKSl6jRU6PK//I5t+eyH1rHgmlL1HRqrZZ0ZysN8xKGpLCQc+eocis55zaqsipDx1BTwgKEqnakspHzxsBMnE+pAMdXxpXnFy6gI2NZcXaUreyMRZVcQDZuFbPvi2bUX+gu8murzn1Rpw2zZgbVwP5T1TB6YSK1SY0sejCYeSJi4jJFDERuxt9B266DVM3vvijGARli+OCGTGh+92RUVWFCViU1UjJjWYadKHzodKTL+FR8Tpb+CUA+ogoMGUJhbHp37aJK8rKksWV0WrE608flKkG+sHufcrM1WgXgxFkCWkQxAkKWnJWJ5y/e4NGTl3j0NE8fP3uJF6/eImrTIVRv6YsypJTzl20zHFaIzF+8DeUbCNX1Zmw5qj578yaF1jMWxWs4Yf60pcD9BF68NFpR1XCzqqHpcl5fvQw9M26pAOlMQiGFEqq3y/Zcuppz7OeoNOhVPDl3BktmrkKPoHHQ+YzG8GHTcGobXY+MAkhljPF6TCot9+zO3cyHeqnVXqs37lNtUBQpclCX+d/wyKWqUqSxVRBOnOPFm5RspLx9h4AB02gl7rBwCEE8WZhIcPhc/FjdDSH9pyBDuQNpADHzoqjxZlVV4U3MnbRULeqs1doXe1bT4oSpqQbldlXK84VK15Vw7Dg8dOFq4Wilhn6o0sgP5ev5wKxNIJnUcl53AWJRUOn6MmhJAwZOJdHwgK1bGDu66emKglJkQEQe//4cDtoIVeri5DcKT54lG7fkF0NGej3+Ltrah6h40mPQdBXLNtNapLLduttA1QPxO61ExrSKpKTK9+jmHifizC5mxux9FUiNJ49jgvpIpoG5j6yoMnlsEfUhv4NW1q//JMZNDapZaFFmSDsUn9QElT3tUdXMW63iOrVtlyHmmAIjR3meK/sPo4VlICo01GHmInaaIshnAGKIBUdPXFZDHZJzjJqyDJmZhQ8JbNgajerNdWpYZXjkbxhH+tegbSBqNvfByIjZWDV3FZbOWKF0MXXRJ3TJrN+oq+CsG45yBMPMsi/GkL6umLcSi2YuN3nM5+iy2avwa+RC5kE9VFVMsZl18Ze4f8Vf4v+E/33kB1Tw6IZKdfUYPnSGgeaaAiJHJdaQLUaOXoDSdZzRrksIbifmXw4n7fkh4yo6IOpYw0lkwX1ZxhLJO3bsJYVV8iEwGekZCB27iMmRG36q1h3FajijYhMd6rRir2ESV4KW9mNNZ/y9ppt6/Zj+lO+9UOtKzE/EZcla8x95Xtmef58vUp6nGC1aBh9rdHLH/znxn/jzrT/hL9f/Bf+W+C8oOa4lStfyhbfPSMYxWog0uqlKxxylG5UBTcsuwZD181Jmmid/FBAlhkZ/k5IK736TePGusCa1u33HECNMyb1HT9F32Bx000XANWA0OrkNRXX2vjqtA9HJeQg8NKFw8QqDi2d4kdVV6TClLkpN7/dxzX+c4b2bLFngNdVq4Yca7TX429ay+PNdKcr7E/79xr+jbLAlytT1Qe/eY9nYBgspDBCVnwhNT4rF3KlL2IE1MGPsvXiZbvcj8pmA5Mm12ESY2/VjQuaBfqGz8pZ25ZMcyiuSZizCljymLc23Anv3DLo8KWBLv3EFade/l159//Xa9dz3mXHXVQWkg9NQVG7gi0raTvhbVAX83x0lUHJsY1Q216J6Mz1Wz2fmLVO+BUDIr0K9FX1OuKZWXXUl0CXruWFA2DxkqDqD/HOtefLFgIis2XxQrQWUFUtLVzPQKTFtinmSjTFTV9C9uMLOZRAeSXAXfi9J2fdSSTKFlckCUakHFpXPJY9hbNi9ejPM2voxv/FG5TZaVOngweTTh1Rej169xyBZiqxlRMEEEB+osDHe35qFa1G1iTfqmQcgOrcm4Q+7rPdFev2gUfNIbz3QjBn4+Qs0YyUfAwS4ejOeCWdfWpc7Zk5mTiJFzmLepm7oa6qxwd9euYC7J2PwTEqIJAHMX7moALvB5HUjvLwj0KJdXzRuGQQr+0GIHDGLvV2qHT/BsAoqgZdVYVr9CBSr4wKfPlOMxdhfGRCRB4+ewM4zDCVruUPjH4mXyR9O374vhosYM22lGttqbdMbN2WW7c63q61SpT20CpnvXjB9MbSMZx2dBsPZaxgmkaU9OHVaNbJ8f7asKZHjaEGvr1zE2R27EbNpJxLUkgeCJ6AWZeKqoN6Nx66oLcybvNUSu807DAmzkny4/GFARPYdOaNW1Zap74lJM6NUyU/hYth4j0BaOQ9CiXoatSwslXHkvZ4qpv41VM51W8C4iIEhE5kT6FG8rpcabi/FV3l8hqxHlOekyPe/N0uoLIquTfIbGQXIOd9nq1gdz8U8KnjAZDJDVzjRWh7n1LZ9bUAkeE+ctRZlCUjdNv7Yd5g9rgiyc/8p1GoToKrbleuSmbb7VBnn+loqCeXDRFXmU5ZEomZLLcL7e2HzAkdMHu6CphbeCpTwIb8i67bMhZtq0M9Vo/s1uj9hWsmXzuLQ2q30ImNQramfaqs1W3KqGvMQ+SqAiCS/fgtNj0j8TB5v5TQQ4ZFLMGLicgyfsOwDjaDKtsFjFqNlp2BUbqxnBtwLg0OmYET4DAwPm6aWHRt0ukkdQR3J7SOGyvsZ6v8RJvYfETYdEUOnwaprCHMgP4T280TW2W7A9U6kil0xd7wzKakW1lJ5eEymhr/AHeWqDGqKiyQQiXHK2mRY/9fIBXCiW5eKeMmbajAxlidHyCqCgvLVABG5eC0OLRgTVIJVw1ENJH5MS9Z2JnPxompRqamUqurVXHhpflaCOY6sEy9ex/N9re3JJMuDzE6HKjxGHr8hSVex2u4MmFKkYGp/T1Ro4oMaLX2waa4rcNkKOE1Artri7DoH1G/njeYdQnBx197c/OJLVIBQtciMVzejY9A/ZBIas6OVbqDDj9Vd0LB9T3j3nozf1u1TRYlKCrj3rwqIyIEj52kFYhkraAUrMJw6bNwyZuwfati4JWrAMnTsYlh0H4TyBESqTjy8R2H8iDl0I9MQxt6dXyNoDf36TUTjdj1Qoakv2ncdjFBaSTitQV4L7i/D8mGDp6K9fX8FdvhAD+CcPUGxpoV0xuIpLijXSAML+8FqUkxl4CYau2hqcFFndx1U2fnP9TyYb3nDxmWoiq0yNZGznK0w+QqAyCOJDDCnZ2bgXXoqXqek4NWbt9Q3zOoNq4hMp0F5cjjmoqLOUjHi6hmqFtXIgF82+X6WyhXIlIQa8//0+BsYFT4T5blvc6teOLNDSm/Ys1Ug5z75VWYY2WMXTl+OsuypdVrrERnqhpjVTlgwwQW/WGlQvJ4XBg+cotYzyjSy6cYugpIECC12dA+lVbqjjX0IojYcxMPH+ctvPy5fARBDQz998RIRjAsu/qPg1TsSXr0mwitoAvR9p+CoqZVEJmTr/pNobNkLZeiy7MjAVAWHBHo1Y0ffnpPYkX4+Pn0KXd3CVCWKxmck3srTH2QWMmef/EqG9OzSBVV0UJoBvBx7bbWW3ijf1B8lebyDRyjiY06wd3NfcTmmGrsoyux96ayViqQ0tuiNgzG8ps+Ur+ayDhw9ox40Vr6hjsHTG5Ua+6Aig7U8Oaf3oBnGvUxLftuRx2y0sjM8Bqm5VU+snBeFTOn58nCx/LTzTiwOrtupMt/yZp6YNmGhIfsWq8hhOUZVc/UJN1WJ6JxJy+DkGqHOLXPwY0fORuIxmYc3zNUXqRbLlMq1saME9hiPnxgvho7l9RjXq3/cN7wvRQYk56Sy3iPxzn2kFRi7WrcjGqXYMO3NfTCvqxNWdXVBTxsNyjbUqse1FhQpL31GqxIpeMEnzl5DF8/hauS1GvOFIQMnI/EoXZjU9Mr0rTSwNDyZzLhR81X5jjw56Jg8HkPyBtWoBRpWjhFLY4xIvnAej5gMPjvLrFstCDXMw7+3/+cqLfjd1UtqoPKHqo5YtGq38W4+Tz7LQmTh+8zFW8mk+mLwyAW4//Ap5MFc0THn4N1nMorTOnyt3QEtGYy2A/Y6dEM5NmiTDv2xZPUO5Uulz6zbeohBfAA82JsS7pl+ZF5i0mP0C51JK9OSpWhhadcP25ZvRJZUtrM3qjluNuTvZ87RdYWrCkF3bYRaky7VhIWWgQqQAoxK+KhSryVjW+ISTe1fVGX8eHv5Ilw8wsionLAkqujTtvnlswCZvWQzqv/ig9JmPuz5OnTTDmeMmIz6bXuipDyqiAxpgi1ZjGdHqhUuO9vBnBZTsqmPeriAndcw+DHXkKfElW7gjVINGcB9RuEOG98gYiuiBlNPTc3AijV7Yd4lBCUbaNDFMQTPz7HB49ng7PFqqIUNG71xp2FVsJkeU8bRVcjSMuXeCnE/BECes5h08hQu7z+MxOMnkCHlQX8kGycgKQqQYXRZjli8mvHvC+SjgBhcSTYtIxtLfttBHh/AfMEXbpZeaN/WG8Ua+6JYQ2/Ubu4NjaUW0+zckeRuh0xtR2T4dkGqZwfsdOiOkA4eaGuuI5De+Emy5Ra+8LYk928twHpDGxiphlIM3/ahyCP/KjbzRoduIYYHV+anphK0b19TT3soRdAatgtSTxZV5UDipnIKsXOUtPTu8ZMYNmQKWlj3QoPWgWhqGYS+fcbi2oEct5hv/6Lq9wAkR6TiRGqqKjbTIdjaDY81djjr0hV+lh7QE4jtjt3x1qsz4NEZ2V42SN2wHGnXziF1qA+InnJh19w7Y2xHNzi012BRFycka+2wycERTc39UKaRrCuZjMdPTK9YXbflECoRkI7d++NJQUBE2eOfMi64kC4L3XRh/Hkqj4+9a2Rmsr+Mk90lO+Pxrmw0iTuVpfianaxKMz3Kkfp26NIf12XtyueO5op+L0Dk2SQ9B/2KEvU1aNVGj2se3djANnRJNnjtaIlXbkywNOKibJDtZoV0ApN+PBqZ6SlIGzkQmS6WyPLidgIlr0+d2hMkCx7D47xtMMzWC6WYENZv44/zV+hqTEjUpgMfB0TiCfOQo7QMKQkt01CDSbSYNwyyKVcv4DUbSobcZSXv+FFzUJGusg7zF49pexG67z58FsTArMsgguSO4OBI9cg/BWRhLs+Ufk8L2Xf0HOqRxVRrocfULo7I9uiATL09sof3AwK6I8vdio1tS1BErYBgTyC8h2pwaDoQjI7I9OA22Sc0EJnBjDPulrjsagertjrmBTr0j5iDt/LkNRPyaUCoEqzZsyePm6uSy7ptekDL/MTXfwz0/mPh4z+aOkatyqrM7S5jN2ICvdME5pPy7CzvedEkEBqYdwzGw9PyHbLu/Z8SEObYtJIJ01ejLBOqFq30uNy1I7JmjyP1fYeUjauRTUDgZYF3np1x2sUeqzp1wxKb7tjl0BUP6MbgRVDcOuDd4CCkJT9D5oUYpPg4YKCVG0o38oGN02DcuV/4c9aLBIiouK6LF+GpG0E3qEd5efA+wZYKlfKNNEqrNfdBFX4WuOi4ekzTKOaBk5h7DtwaTxfmg18s+yA+OkYB8kH8+Zh+a0AKBtdf527CT2ZaWLXxwa3ujAvjhyCDWXTGUiZ9HlaIYfDWWHrCrKWPetZhuSY61GLwtmyjxazO7njtao3sARpVQJa1ZxvSvO0wpqMjSjbxga3LMDx9mlfjVfC7iwyI6O2biDt8FLMnL8S0iQsxk68zJy/CzCmLMGvqEtiQblckI+wYPBcjz6fh10TeypVsOIxYgwrMo6zs++HlBeYn8V9gIVcuwpl5iPw4wFcFpOC40yMGWxuXUDX4N6UT3RFzjCxPa2To2Pt1nbC+mwOaEYiS3C61rHYeEXD0GY1mtn1Qhhl7pWa+6EOm9YR0OEtni0wv5ileVrjiao/WrWQFlS+Wr3uft+e/hs8CRFQCuKrN5X4SoEXl/3vxWLcgClXZYWSCqkOvWfCaugudByxGNV63APJrpPGRH5/LtBQglwhIOH6o7vy1LSQbWczIb8QnYcf+Uxg2fqlq1F9aanGD7ApauigCAk9LnHTqghbmvmodhxNzigMxF/Dw0VM8ffaSx9/DuF9Xq8frSYI42tYVmXIc44cK8lpbDLH2RHG6FHttOFZvOogT564h2bg6K0c+GxBRadD8Kp8xf5EKk5GMV7XpukrVckHJGq4oyddqTbwQ3GcSXlymD8s/c/lJFbdGNZ7b1XMk/l6tOxauyin6+Dwp1GUdOXERTa0DVA1V2eZ++LlZIPTtdUjRSOBmo3qQ3mo6oY+1B0qY6dDVayQS7pquz5o5bwPK0j+btfIhXSZL05CRSfLIc63p6oLKLWhd/I5KrfxRtZkWoWMWvfdLBF8ESGF667pa7L91+XoE9Y6Eq2YE/ALHYtXcFWRiMpeRAwYbWUp9HtKnPWSwKVSN25/cxaU9B9Wy7zL13LB2c87DQD9PCgVkadROVV1Yn43lxURwmK0GZ51oHW7tkO3KHk72dIksqXVLb1RhQ67fXvha7OfPX9ECIhhX9JjU2RXZ3gRDYoprOzx3tcHcLq7oZa2FRWvJ3nVw8R+PFy/zYspXBURUKK0qA7qhqujVGhAZSlFUV/a5hqyb17Fz5WbS5FmYOGbOR3QepoydoxaKdnUZrCppLLoPREKS6SGhT0mhgCxfuwfl2Wvt2mlw14M+34NW0aMb0tctRtrMCXRbttjdtasqeG7ffQgS7hVevSgyYcYaVVzQU8a6mLOkh/ggbfMqZI0JUS4snRYzz84J5ej63HtMxMsXr4xHfgNAclSospoDKeCi6LKenD0HK7t+6mEIxWu54u9VHfFDNadC1BH/WcVJPS2vuU3v3CUYXyIKEAmgGdkZ7wXS39buVoA4tdXgneQPbuZ4NywIMt+VJkEy0BEb7brgZwZCW5cItY7kYzJn0Q78WFsDb0s3wMUaqctmqHOl7tnKhJKJos4SUfZdaUXecFOA5MWRbwWIYf7bxDYCIg/il0djlKeXcA+IxIDhC9EnbO6HGjoXvUX5fszklTh3Mac27ctEAZKakYl7dBFp+R5ZunzNLlRs7kuaq8FBFwc8dmMG7tsVGfMmITVymLKQQ926oQYvuIVdf1yOpR8tRLKzMzGEcaFEAw362xAQLzK0vlqkLZ2LjNAeeOnWEXEe9hhh66bmyt160GV9DwspTOnC7p84hXad+qI0s3dZY2kQ6bAfqqEji/5xUYCkZ2XjZUrae4/EXrl+L8rXk4cF6GD2ix7m5t5Y1MUF2c4WyHRtr2jrHffO6NhWT7rrjSlzDQ+kNyXX4+6gVadgVGKmv6SbC+NPJ2QyUcx2bYOrjrZwtfBEEyactZvrUYKsx8VPHmmUV3D3DwOkc7ABkJjzxiv59mKMIYKugMFX4/z4JTZiwKDpsPUIQ+22QSjdIgBd6L5eeDgwntgim9Q3W9sJk21dUKapPxp36Itt+06qY/PLA1Jgn+BJzPL9YNPWG0kedsY8hoGdOcwsxo2yLfzJtPxhTktz8RuLtZsOq9GBHMkBxJZJnVroo4bX6f+/lRJw+bGw9goQD+yL/riF5Okfl3xBPe+kUhnx8M0b3GJC+PDxU2zZHYNa5v60FF8ccnJkg5JleXRgLLDAA5fO7OFaZSWNLPpi+Phl2Hv4HI6fuYEFK3cqOlymsVatJdnk4Ex2xRyGmk0Le0NQfK20dGVa9Audg8Q7j5D88sMfeFSANPeGTbcQ3I4+iJRLp5F89vg307c8/419B9HWtrcBkCOfPzf+pZILiBhGOl3W64w0PGBilvDsFZL4+iYjG8+lCK7nREVJ+3VwNwR5T1uk9mE80HdGrLMtNMxRyjb1Q2nmGzVbBaJOqyA2oj+KNdKjKfOPFfZ0VUwGM4Kcke5H+kxA93d3RN1metShBe7L9dMi7/c2AyB6dLAPxtVd2/H78UO4d3TfN9PHxw7i7LbtzCkISIN/BCACRmYWXqS8Q9LLF4gnY0p4nqx+HSb+2Rs857bZy7epnt60pS/OdbMBJkcg/cE9pK6cz4a2xBPGk8X2jnCz1KBlSw2a/6JFR3Mdhtt44qwz3Zxne2QM8EHqnVvIOLQTaTo7DLBwR4lGvnDwHol3qYY5+vxML0fWEBAZ6rDu2hdX9uzE45MHkRSz/5vp78f34+z2LTDv1AdlGUf3H/4HACIuW2YG37HxH9MiEp89RzxBeZbyFk9pKQH9p7H3a2HfjnHA0RIZ00cj/XUy3q1digx30lYZ0WXmnezeCYmONojrbolHTByzZOJKK4mgBd4N9EPakwdIY4Nm+thhpq0DKjTVo4lN8EdLZtZtP4QqZHw29v1w88AuupVDeMpzfCt9feYQLhJ4c9u+CpBDn/FEuD8q+WJInmQQnfsvknHfuLRg0bLtqMiErRFdz0G6GZnXyGBAzwzRAL4yUyjjWjJpRVDk/WBfYNwg5c5kfkQNk6ihEu7T2x2ZATwHXdZLTzv4WmvwM12hg24EHj35sKAsIyMds5duVoBYs8ceWLUW57dvxenNm76Znqe72rFiLcxteqJsA88vHgb5EjEJiIg8NF5+VkGsJ3jIDDVf3bi1P444dSc7MswYnutmi7NOnZFFGqtmEd07IJ2NnnLmMCl0GtJGDVSBX23j5/c8uiDavjNeuDIGkWm99eyEQGt5wIwe8kCzS5fyZgxl2VfUxv3wDByPlrYhqNqiB+qY90Dbzv1UWWh7u5Bvp136ow2z9NqtA9kRhP0Ngk/vKczAY95jf99CCgVEYoo8vk/k4tVb6OAyQD3SyLoNrcTJAfPsXdHYnO6mlS8TOmeccumKl+60ArKntKgFSLtwBtn99Uh3s0a8e1f81s2RtFnYli/8rdy5vwPCO8q8th8qN5d13JtyH+uUkZGByXPWqbnuYrWZC5HyNjD3Uz+PV7OFDjW4/7dW+Z66rX1Qr40vKjfy4nV4kKz4qt/G/ZZSKCBiGVmZeQH2+IVYtOvan/mEhq4rADWb+aJ8E1/1CKXS7OF1WmrhSfob070rcwyyKeYqz2kxMuRuTuDKc59yUs3YVEo4BUg/VGPvk8aeOm8DLSrvu6KZiMnT5+R5Vn30Omwfp8GuCRrsHP+dNVKDvRM8sGWMNwI0MgPpjSZWvXDucp4lf20pHJD3JBupbLDo09dg0a0/fqjlhtqktmOnrsTytbvVj8bXlNqsZj0xsAOpsHJRljjt1AW1f/FD+ZY90ZquZuSEZVi58SBsXYehRF1PVSw9YdY69bMW+WX8tNX4saYbPF11eLGecWqnO7CDuv0foDt4P7s9kPSbO7p280EZM3Yg48/kfQspIiBgPpKKV5np2BVzEUFDZmGTWiNnaMiU1HSMIDjF6nvBk7T3laYL0nUdsNrBBaVIldt1G4Br8XnP2opLSMKwUUswa+FmpDHvyS9SST9w+Hy1PiS8pw7YpUH6RidkbHDnq9v31Q0GzdrkiuwtHhjor8UPtTUIj/zNeLVfX4oMiOQH8vM8qcahlYKyaedxuhgtzFrp4W2hYbDWwradjj1KA3e/cca9iibjp0cpC3Hp7ov7qzyBbUwqt7C3bmFv/UfoNjfcXuwFWztvlDPTY1buY1+/vhQZkMIkJ5E7d+kmmnboiZ9qOePHuu74QeYR6rqhNHX05M/rUfIzGPXIqGToW+euw+oIPdaN9saa0brvrN7YMFqPZcPZqZx1JDV6NO/YG1c/MrL9R+UPA2KQLLKydGzdd5z+dS2mL1qPGYs3YNrC9Zi7fCsS70vtrmnLMiWy5+wlG1GD2XnpBj4MprK0QYuKDKrfXUksylJL1deq30JcvuHLiqiLKl8BEGm+ojR20QDJ2Ut+fHHPwTMIGjhN/Ya5ZfdBsHQc8p11KCwcB8HaaSj6hs5Sjyk0XN+3y0W+koV8O5H1KG/fvsNr6pt/oMpSjO8h//SA/P8lwP8DSeHCM+H7bf4AAAAASUVORK5CYII=;" vertex="1" parent="1">
          <mxGeometry x="279" y="390" width="119.57" height="110" as="geometry" />
        </mxCell>
        <mxCell id="N2-TDpayMP2dwZPG7_H5-3" value="" style="shape=image;verticalLabelPosition=bottom;labelBackgroundColor=default;verticalAlign=top;aspect=fixed;imageAspect=0;image=https://www.freeiconspng.com/uploads/emergency-alert-icon-alert-icon-8.png;" vertex="1" parent="1">
          <mxGeometry x="289" y="749" width="80" height="73.34" as="geometry" />
        </mxCell>
        <mxCell id="N2-TDpayMP2dwZPG7_H5-4" value="" style="edgeStyle=orthogonalEdgeStyle;rounded=0;orthogonalLoop=1;jettySize=auto;html=1;strokeWidth=2;" edge="1" parent="1">
          <mxGeometry relative="1" as="geometry">
            <mxPoint x="105" y="742" as="sourcePoint" />
            <mxPoint x="249" y="789" as="targetPoint" />
            <Array as="points">
              <mxPoint x="105" y="789" />
              <mxPoint x="186" y="789" />
            </Array>
          </mxGeometry>
        </mxCell>
        <mxCell id="N2-TDpayMP2dwZPG7_H5-5" value="" style="edgeStyle=orthogonalEdgeStyle;rounded=0;orthogonalLoop=1;jettySize=auto;html=1;strokeWidth=2;" edge="1" parent="1">
          <mxGeometry relative="1" as="geometry">
            <mxPoint x="398.56999999999994" y="785.17" as="sourcePoint" />
            <mxPoint x="484.56999999999994" y="785.17" as="targetPoint" />
          </mxGeometry>
        </mxCell>
        <mxCell id="N2-TDpayMP2dwZPG7_H5-6" value="" style="edgeStyle=orthogonalEdgeStyle;rounded=0;orthogonalLoop=1;jettySize=auto;html=1;strokeWidth=2;exitX=0.5;exitY=1;exitDx=0;exitDy=0;" edge="1" parent="1" source="N2-TDpayMP2dwZPG7_H5-2">
          <mxGeometry relative="1" as="geometry">
            <mxPoint x="381" y="559" as="sourcePoint" />
            <mxPoint x="339" y="589" as="targetPoint" />
          </mxGeometry>
        </mxCell>
        <mxCell id="N2-TDpayMP2dwZPG7_H5-7" value="" style="edgeStyle=orthogonalEdgeStyle;rounded=0;orthogonalLoop=1;jettySize=auto;html=1;strokeWidth=2;" edge="1" parent="1">
          <mxGeometry relative="1" as="geometry">
            <mxPoint x="279" y="655" as="sourcePoint" />
            <mxPoint x="200" y="655" as="targetPoint" />
          </mxGeometry>
        </mxCell>
        <mxCell id="N2-TDpayMP2dwZPG7_H5-8" value="" style="shape=image;verticalLabelPosition=bottom;labelBackgroundColor=default;verticalAlign=top;aspect=fixed;imageAspect=0;image=https://cdn-icons-png.flaticon.com/512/69/69063.png;" vertex="1" parent="1">
          <mxGeometry x="293.79" y="610.38" width="90" height="90" as="geometry" />
        </mxCell>
        <mxCell id="N2-TDpayMP2dwZPG7_H5-9" value="" style="edgeStyle=orthogonalEdgeStyle;rounded=0;orthogonalLoop=1;jettySize=auto;html=1;strokeWidth=2;" edge="1" parent="1">
          <mxGeometry relative="1" as="geometry">
            <mxPoint x="169" y="438.99999999999994" as="sourcePoint" />
            <mxPoint x="255" y="438.99999999999994" as="targetPoint" />
          </mxGeometry>
        </mxCell>
        <mxCell id="N2-TDpayMP2dwZPG7_H5-10" value="" style="edgeStyle=orthogonalEdgeStyle;rounded=0;orthogonalLoop=1;jettySize=auto;html=1;strokeWidth=2;exitX=0.5;exitY=1;exitDx=0;exitDy=0;" edge="1" parent="1">
          <mxGeometry relative="1" as="geometry">
            <mxPoint x="104.5" y="500" as="sourcePoint" />
            <mxPoint x="104.5" y="589" as="targetPoint" />
          </mxGeometry>
        </mxCell>
        <mxCell id="N2-TDpayMP2dwZPG7_H5-11" value="" style="shape=image;verticalLabelPosition=bottom;labelBackgroundColor=default;verticalAlign=top;aspect=fixed;imageAspect=0;image=https://cdn2.iconfinder.com/data/icons/geography-color/64/gis-layer-process-present-analysis-positioning-overlay-512.png;" vertex="1" parent="1">
          <mxGeometry x="509" y="724.6700000000001" width="122" height="122" as="geometry" />
        </mxCell>
        <mxCell id="HGjV-2shECN2UwNzcHq7-1" value="" style="shape=image;verticalLabelPosition=bottom;labelBackgroundColor=default;verticalAlign=top;aspect=fixed;imageAspect=0;image=https://png.pngtree.com/png-clipart/20230823/original/pngtree-risk-icon-on-speedometer-picture-image_8270320.png;" vertex="1" parent="1">
          <mxGeometry x="10" y="569.01" width="190" height="172.75" as="geometry" />
        </mxCell>
      </root>
    </mxGraphModel>
  </diagram>
  <diagram id="-rNjk5SnJIcHHPQtceGz" name="Page-2">
    <mxGraphModel dx="1434" dy="780" grid="1" gridSize="10" guides="1" tooltips="1" connect="1" arrows="1" fold="1" page="1" pageScale="1" pageWidth="850" pageHeight="1100" math="0" shadow="0">
      <root>
        <mxCell id="0" />
        <mxCell id="1" parent="0" />
        <mxCell id="lPx5ujWDSRXHcGL7_enU-1" value="" style="shape=image;verticalLabelPosition=bottom;labelBackgroundColor=default;verticalAlign=top;aspect=fixed;imageAspect=0;image=https://cdn-icons-png.flaticon.com/512/9850/9850812.png;" vertex="1" parent="1">
          <mxGeometry x="60" y="180" width="92" height="92" as="geometry" />
        </mxCell>
        <mxCell id="lPx5ujWDSRXHcGL7_enU-11" value="" style="shape=image;verticalLabelPosition=bottom;labelBackgroundColor=default;verticalAlign=top;aspect=fixed;imageAspect=0;image=https://png.pngtree.com/png-clipart/20230823/original/pngtree-risk-icon-on-speedometer-picture-image_8270320.png;" vertex="1" parent="1">
          <mxGeometry x="11" y="350" width="190" height="172.75" as="geometry" />
        </mxCell>
        <mxCell id="lPx5ujWDSRXHcGL7_enU-12" value="" style="shape=image;verticalLabelPosition=bottom;labelBackgroundColor=default;verticalAlign=top;aspect=fixed;imageAspect=0;image=data:image/png,iVBORw0KGgoAAAANSUhEUgAAAGQAAABcCAYAAACYyxCUAAAAAXNSR0IArs4c6QAAAARnQU1BAACxjwv8YQUAAAAJcEhZcwAAFxEAABcRAcom8z8AADTdSURBVHhe7X0HVJTZlu6duXfmzVrvvbXu3NvdhjbnHDG3ioEgoogiOVQVRRQTYgbBrBjbnGMbMOccUcw5IyIoxjZiQPL3vn2qCGKhaKv3zrzZrL2qqD/U/5/v7L2/fc4+f/0J/yP/VPI/gPyTyX9LQLKzspCWlo63b9/h1eu3eJH8hvoaL/lePktNTUcW9/lnlP8WgLx58xY3Yu9g3+GzmLNkG0LHLIFfyFQ46kfB2nkY2toPpA6AleNQdNeNhG/wJAwZuRAzFmzC7gOnce1GApJfvzaeLU+y+fe95b8sIOmZmTh59jqmz9kEfa/JaNExGGUaeKBEHTeUrq9B+YZaVGykQ+XG3qjcRGvQxhpUaOSFcmYa7qtFSe5bpr4bmln3gWfQBEyavRYxJy8jLT3D+C3fX/7LAfL06Qus3XQAnoFj0dCqF36q5Yqfqjuh1i8+aNM5GI7uQzGg30TMjFyMqHlrsX3FJuxZswW7qTtWbsS6hVGYPWkhBg+YCBfNULS364c6rfxRrJYLitV0Rv12QXD1H43f1uzBw9+fGL/1+8l/GUAeP0vGwlU70dl1KCo11qJ4XU9UbeYNJ69hGDdyNnau3IQ7J44h7eZl4NZ1IJ6aQE28kacJ+ZTbM2Ov4f7J09gXtQkTx8yGuzYcNZrraWXuKN/YCx2cBmLesu148Pip8SpExI196MpSGLOep7xFZjZjU85mvmZlf57b+6cHJCs7A1t2H4ejbgRK1XfHz3RHza2CMHTQFBxavwPPz58F7scDSTeB2wTg1lUgLkevADcLqIB0J477UwWk+Gv8P5bniMPLi+cRs2kXwsOmoblND7ozLUrV84Cd5zBs2BaD9IzCXdmLd2lISk5Ganam8RNeO4lDanraZ0Wif2pAkh4+xaAR81GrpS+K13JGE4sgjBw2E9cOHkF2HBtSGlV6+82ryKbmNnpsvvf59dY1XN13EKvmrcbBjbvx+5nTypqyBbxE6l2e6x7PeesG4g4dx7gRs/GLdS+UqO2OqrScPmGzkXD3ofHq3hexjAyqMggjAmmMc8/fvPnvAcjR45fRxT0M5Rp4MT7o0Zdx4RIbU3qy0ju0CAEjUdySUW/zfwKVQcvIkkZ+DwyCxsZ304Thx1pu+LmeGwICRyGd4GXTfcVFH8XzS5cM1iNWlsDzJ8bhwt5D6BM8EVWaeqNEXQ2sHQdj/+EzxqukfMQlJaem4c7LZAWMSFG81zcB5O7DJ7h0IxFXb975LL0WdxexCfexLGoPmlr2RgUzHeqYB2Lg0Bk4t+cAEo4fw5WD0bh84Aiu7I9WenX/YVzZd4hWE43HZ9lQCeKC2JhiQfkBEffFhp8/dTmsuvRFw3aB6NV7PDLp5g6s34Y2dv3h4DYUi6f/hnfXGIfu0o0l8jy0wlSCFjV/Ddp1CiYoHmjQJgBLVu1izy88l8mgu3r48jVuPXuJp29S6HqNGz4hXwGQ97/pwtV4tLMPQc1ffFGntT/qFkHVfuYBZDiBaNg2CDVa+KJiUy2qkTnVbKmHWXt/fu7HffXcV87ry/fyvx8Zki/qtfJB3VZ62HQbiNlTliGW4KjGvEuV3q5AkVcq3dab65fx4OQpvLnChmf82MOg3qCtP/5a3QW1aY3RG3bgKs9x//gJg8WItdyNx5UDB6HVD0MZI6GYNGsNUtPSDDfO7i9/GZlZeMsAf//VK9wmEUl89oqajMdv3iGFdDqTQEmgLwyfrwBIXi95m5oKn76TULqeJxvSB/XbBqBeG3+qXyEq29jYBKIRtQYBqNLMV6kZPzdrb/i8IXtkfQGM2sCoOf/X57YGPFctglOeFlWSjfWLTTDChk7Hsa17kBFLMBLZ2yXgC/O6TcuJj6X7YiPfpiZcRSat6eS2XRg7fDamjFuAlfNXo565Dzo7DcLWFVvzAj8BfnLuLAb2n0br1aJsI3eMm7aaeUu6uv9UBv1nb1OQ8OIlLeMFEp6/VO9vP09WlpLE98nvUpQLK4x9fSULMZx8cdQuVGyiQe2Wfli75RASkx4hLuERbiY8LFRvcXsC9xs6bgkqN9UxmfPCwAFTcPVQDG4dicHNw0c+obLfMbq0Q4gcPRdWXfuhfCMt8xM3NGjXA36BY7Bt5Va8IIO6R6uYNnEJXL3CYO8yCH37TsDBDdsZQ9jgwtTiJSbdxNEtu9GYVlm8jgct3Q/DI2bj6cWLKqZI3Eq5fgXDQ6exAzDRJD2ePn+9uv9sNrJYQGp6Jh4nv0UCQYknCAkvkvFUhmwIhLgyBUYhJvLVXFZs3B2VmJVggjV0zEJeWB79+5TsOngSjaxIM9nrBvSbgOTLF+i72SOlV0rvVsrGUjkEe7XECHFJKr8wblOB/QbunzqNZTOWw10XToD1pMoedC96ghAOe9dQVGnkSTrrwWzeFeUbeNJV+mLOtCXIyqHMtB6xpPMEOCBgDDuIFuUaekHrHc7Af4xWIoTiBt7cuISIoVNIOjSo2cIPq9fvN96NQTLoOB4mv0EcreRZyrsPAfh2gADv6Kr6hs5QYFg6Dcbtu4+MWz4tl67eQmsCWZLB0sd3JJ5dkJ7IRskfkHM0jo2m/LmAwX0YDyAuKXc7VRqW1PXFhXPYtWYbA/cENKbbq9zEm2BoUc8qGA6jNkA3fR/a+kxC5UbeMGvnR6vYpUDNVueR2MJGpyXMmrQYDUksSpCVdXYcgIt7yPTu3OJ1XMerKxfRu884lKznxQ7VEydO81glhtZ+k5qBuy9eKavIlUKAyJGvAsjabYdICzX0/d5Yt/2w8dNPfDMl+dUbeAVFkue7oYNDCF3PUUNj5zRwrrKBxDpIWxOOHsPlvYdxOzoGWSo+8HPjftKYWUZVwDCvSI+7gY1LN5Ot+akY5TPvKMYSy4ls0/CjT2DuFYly9dwxZMhUQ0MrgC8jO5YdQ2IOrXT7qvX4pUMfFGdstO3Wj6yOpIGACYBJp06iu/tQFK/tiW7aCNzPl9WnM8A/p6vKL9Iq4tYK8yB/GJC79P/WTgNRso47gofOzs1m34dD/jOwEIMY3s9ctBnlmA3Xax2IvWsYPMVN3WQuII2ilA0jjcsbv3f8NEaGT0eHLgPQpE0QrGz7YfCgyYg9RDdC96USReP+Chjp5bESjONwZOM21GbQb2DTH2ExLzGRbTmGp53AsOE0dgNKVneAhi5J5TFGViaJpko25f+keBzduAOtO/Whpbijm8sA3Dl+XJ0bd2/h9La9TFp7qKx+1OQVjBEGi5BYUXCg8q3El9ev8Yj6imysYLf9Q4DIFw8ZPY+9wxWtu4Qg9maSccun5er122jWoTcDoxYTGYzVzcWzlWQcSho3R9lDH5w5C0/NcJStp0WVJnpUJwWu1sSH9FMLu+6DcZPBP9fdFFRa1qnt+1GPRKNmyx7ovf4apiQAkwnG2Evp6NhrNkrXcaLrieR30UIEyILnkCSToBxctw1NrHujJGNQj55j8foqY51YLq9xzq9LUb6xlvS5B44cp3UZRc27GFtdsvnH9ArJdPFCgR/xfWrm+4D9IUB2HjiNGswTypFpLI7aafxUpCDuNN+MdHL0DAViyrs0BIfOYcD1QmfnwbhP9pPNG8u4cYU09SpfmW1TM2OvI5PMZ8LoOahoRkps5Y3ik8zw1+3l8NOsuqjSyQsVGvhi8IDJdFNsNIkxBRuTDErGqJxdhqA8v6+l60gELj2N4M2xcIiIYq5DV9ZCj83LyZQSxWUZLOQDVZYSh7UL15FF+qJSIx1mTligwJDO8OLyeXjow1Gstgv0vSYhJSXVeOcUY3OoZJH5SbrRXQk4KenGPMYoXwzIwyfPYecRjp9reiIgZArevsvvK7N4DQazfcakaMSEFdD3nQr//r8iaMA06HtPQv32QYw5PrC0H4ieQWMQGDQWgT34qnSc0h495LNINGMgrtHIHyXHNcNf4v8df779J/xr4l8ISn1UJ1BtOgbjMa0I8SYaUwI9A/ChDXvQnEyubD1XUnNfVG8ZiLJkSOUa6zBowFS8Y7JocFeFACJxjOBmM3cZO3wO2ZUHGrbvgZNbSQYEFIK1lySiNpPWqrSUrTuZVBYQweXFu1RS4td0W2/w7PVbAwXOJ18MyNjJK0kdPdGMJnz+CnuWCRFzHc39SjG+/K1ad/y1Snf8VMOZeYI3A6wfKjFn+ZkN9LcaLvhbdVf8vcaH+kM1Z8WQajcLwI/La+DPd/6Ev1z9X/hz4p/w161lFajNrfrgNoO9SvpMNaa4Pvb+Y5v3wNcvAuY2fdDSqhc6OgzCzMiFeHXpvIEEmDrWqIaYwvdkd4/On4MDc5nidVzhS2r8RoZa7lxHBgEN6hlJF+4OPV9fvUkxtkSeSK7yllbxmhm+qeTwiwA5fOyiGs8p28ALMxdvVJ8ZAvb7X7B97wlydPYYNlrf0JmYNm8DBkTMo5vwRd1WAegXMgnTI+dh0rh5mDz2Q51KncIGk2Svuhm/b4AF/uPqf+DfCMZ/3Px3/DyiFao09IUV49fzC9KohQAiBEHiAN1iOt3gzUNHcXnXQTw9c46fsXcXdlwBFVanAj3Jx46ozQbXxc6yZfkmfiZ0/AYOr9upJryqN9fjyEkeV1A+xOA9yQNE7ZjDhApT4Hdmn84+o9nTXeERMBbJNL1cydtNDVNbOQ5CyZpu8O0zCelGtrFy7W6UNfOEZdf+5PHsWb/fBR4wyj64bVqf3sXKOSvoBrxRmYG5TLAFik2vh1KD2qJqWz1jixZTx883ZNsFR3hN6S2qBGKhy8ZjTJIBkyoBn9/Bc2TcvI7A3mPVHI2n93C8vkJ2yEw+hffkQcb2M9njoJGMMZ8pRkCMrVgEmTZvI0qT3on/jCnQAwxnyUYq6Vxw2Cw189a6c39cj72jtqTQfzp4R6i57wnCrFR2XPCm81Q1VPxlvL52BWGhU1GFoJSv68Ne6cMArUflhrS8PuPxRFlHISzrW6gAT0APb96J6q38UKulvxoxNowY3MTyeVGMVe5oz0734Pfn6t6LKrmAvEh+hcMxF7Bj3wnsPnDyA91z6DSWrtuDptZ9UKahBybOjDIcakKWrNmtCgqqNtVh7aZDxk+B05duokH73qjRTI8TEgxNJoH5VfIK9jzmB2+ZNa9ZuAZBQePg5BYKP/ru5bNWqDEq6fHfDQxqtgrwvKbL56DzHc446IV+AyYa3B/v6cbBg2jBGFWthR82bGdm/xmS67LmMkmr0MAT1ej7qv/i/YFWI70Vf/kzM9KuzEgfPX1hPPJ9OX8plvlFT5UoDhk5H5nGyRmROUu2MO/wRlfXMDw9fcrQo0zdsPLVZDQqkF41ZN7CgO7GIvXaBTwho0q5whxA5izE7ShX8uF5TGlOJi+qGtZ4rNBmw/cV5VyyD7+XzGr1vBUExJPWMBD3Yk4yuBsGHwOCJihSEhG5yHj3RZNcQDZtOwILJlkWTmGwcvlQrV1CYe0YCnvPYTiUm/gIvc2T5FevoQkcT1fljE7uw3DvYV7VhhCKnoOm48eq3TF08K/IkmEJRTPfv1kFgCRnt6kyiJhEBicDere5r7gKAUDmxSUQm5oz/4TmgKHOI8nog0RDrGLGrdynEIB8+39UaQ3X9h5E6w59aA2+2LZ8nQr4MnI8gzlKMbJHN/8xqlivqKIAkUCelZ2JB4+f4DaDceK9Ryb0AQP1fTz+/Zk60CA5JMAgMmFTpqEn6rTxx/5o5gX55DldYlfdaFqYM5bS1ahGMNUbhaLSBT08fRIbFkdh1qRFWD1/JZKOMRsXgEyA+DmqXBvP/+rSWaxbuBoR4TMQEfYrVs5dhSfnxGrZoOwUpo79QHkt6QTQx280fiCdHz96tqED3YvDrpXrUYvUvqXdAMZQgl5EybWQL5UcOPYdPo+6rQMU65g8a7XxU4pxhyux8WjVOQT1uM/h9TJuZYgfOb5f5sCzVRIXi12rN8PGYSCqsteVbuSFKnSjlnYhBGiNaszsQoiAoqTq/SXleuTc7yu3M7GTnEWnj0C1pj74sZYXfqjlgUpN/eDE3OLKfsY8Aq+uR53rE0prGBUxUw0f6QPHkW3J1EE8qfURtLENRrVmvog+xjhYRPnDgIgk0TXZuoep2Tqf4Il48zYfFTZK9PELNGtvmPMi4w5FG6o7ZDBPmJaouKGkGzixbReaWgSiXH0dmlr1hKNnBFqSSJRqpEVD8wDsX7NZMRlTjaMKG5Rbk/PmO3eO0sWk0r9LMleqnhb12+jQq7cW/fto0KydnuzRBy6acOY0tG6CngfwR5TnjFoQhcokKrbOQ3Dv2HHlYl+RBts7DUbxmi7YsOWIsRU+LZ8E5G1KKm4n3kdcfBLiEu4h7vY9xPM1Z6gkNS0DA0bOJZX1JBXuRVZxFEn3f1f7qf2p9x78jvlLtyl31s5+AGI27kb80SO4wV4Uq/Qobh2OVv/79xjL/XSw6z4IOxdvQezWIziwbAec3cLwMxNRnX4E0m+ysU25LlqYkIHEmONkOoeN587TeH6+ZuE6Jm0BqGuux9pZLkg71wXZF+2wY54TmrTVoQqZ0ZqFZJC0kiJZCF3ciS07Ua9tDzS37oXrB9jZGEekwsVLO0zla3MW0yMoyTcvUoh8EpDRk1egJrl2w/aBMLMIUvlHbWaioyYvU9u37oxRZZzV6V7qmQeiMQOcmUUvmLUPUvsrtQxS8+u1ydfr0GXJORq1C1Dz5aJmxteG7XqgJpO/qs11WDDxNzw5chb3ScNfHr2AldNWo0JjHdp17mcY+pYen9MoscZYRHe3ev5qNLHkd/D7cs6fq7yHOrSyys0CSJ29kHLcHrjYCbjUEZkn7RHg54XidXwxJmKGcjsCbu53FKa07NgDB5kO9EKNFj44s3O/OlYm0gJ7jFLDK6N/XUXP/WkwRD4JSMT4hSjdwA0VmniichMvVGrshfLMQ8LHGrLQdVsPokZzX16MH2qzsWuQIldsolXjVLK/qExeyYiqxBgBs0pTX1TlPlLrJJNalZtpmbNoUa2JHlV4vHy2cEoUnkSfwb29MXhx9CxWzVyDSo00aN+pL+7EHFOxRBrE4OvJ+u5ex+V90WjdMRjlzLxQ0Xju95SfVWumQ6XmPdC5uw7PorsB12wY4GyRHNMFnlodStbzVXPzSEog/S6CyyL7SzgaQ0B6qwHHo0wWcY+EhYD06RtJN+6GsMjFyMoqvOoxv3wUEBkIe/HyNa5cv4MLVxNw8VqCer107TZeJhvK98V19R08mxfjSavohTVbjyI2/p7aV+n1BMTeSsLoKStRsrYL7JmDXNh7BJf2HsL5vQeo+1Ux2uU9h/n+EPR+I1GuoQbdXYbi8KrduL0zGjFRe+HlFUHC4MlGG6aK23JdlryntaRcv0buPwYl6rrDxnEQDmzchit0W4bvMOgVxq6tKzegvjk7BYnCuDB3PDjghEeHu2HGKFfUbOFJK5Y4RRdDV1SkGBJ/FY/OnGFH6IOK7KinduzNtZB+IRPxMwEJHbfw6wBSVElIfABLx4FqSKVP6ExkZnw4PblszV78vVo3VdCMRF5wThGDUgZpeX14C9GbdqMBaXNZBnFz3qRWNxIWnULUCHHtVj7YumILj6d15OQg8sogv2zGKlSkSxMLVXMbD9lLc89vVBKJbLqYkaS6Arokuu06ecPCTkcr9UHZ+h4YFDIJaZKLFJleGxLKrcvXYPmclXgt1Y9yLN1nn96RaqR7+PilKq0oivxxQIy0duvuE6qorXxDL8xcaBgBzi+/rTuAn2q5wMFtCJLloiUxfO/GGAfiLqlKwg2L16G1bR9UoJsp09ibsUOPFnQJy2avRqZUheRPCNnQl2lZUoslo8+DB09FpiSWhTUoE8pkMqBxo+aiMeNc1Wb+qNzcHw0YY8LCZuGFcVzM5LEmVMBQiaYkr0nsBBLPBNCEOPj5j1J1wZEzZJgpJ0HIy9tMSS4gL5llHzt5BQeY0B1gEC2o+6LP4xaZ08dk5JTlpJPuaMBAfuwUGySfbNx1TLEsm279kUS2g9ts2Nwbk5uQwgK+l0oSUtZExonls5Zj/MgZWDx9KW4elvkOSQxlSEWO4X7MtlOuX4Zv4HiUomvoxNwlSaoN1ZCMaUCypcEIShZprUz9bl26EVsWr8X1g0cYj+S7BQzJYXKO5/5KCzkf1TDswv9jJf/hfmRYmXE34KoJU8Mn83/bYWwFkSICMpcUs2RNV7oddxWc3lOpY6JvtnIczHhw13jEh/LseTKcfEaoKhJH3Sg1VJ8jh5mH1Gnth1869MXFXWQiiXLjpm9S5RKSl6jRU6PK//I5t+eyH1rHgmlL1HRqrZZ0ZysN8xKGpLCQc+eocis55zaqsipDx1BTwgKEqnakspHzxsBMnE+pAMdXxpXnFy6gI2NZcXaUreyMRZVcQDZuFbPvi2bUX+gu8murzn1Rpw2zZgbVwP5T1TB6YSK1SY0sejCYeSJi4jJFDERuxt9B266DVM3vvijGARli+OCGTGh+92RUVWFCViU1UjJjWYadKHzodKTL+FR8Tpb+CUA+ogoMGUJhbHp37aJK8rKksWV0WrE608flKkG+sHufcrM1WgXgxFkCWkQxAkKWnJWJ5y/e4NGTl3j0NE8fP3uJF6/eImrTIVRv6YsypJTzl20zHFaIzF+8DeUbCNX1Zmw5qj578yaF1jMWxWs4Yf60pcD9BF68NFpR1XCzqqHpcl5fvQw9M26pAOlMQiGFEqq3y/Zcuppz7OeoNOhVPDl3BktmrkKPoHHQ+YzG8GHTcGobXY+MAkhljPF6TCot9+zO3cyHeqnVXqs37lNtUBQpclCX+d/wyKWqUqSxVRBOnOPFm5RspLx9h4AB02gl7rBwCEE8WZhIcPhc/FjdDSH9pyBDuQNpADHzoqjxZlVV4U3MnbRULeqs1doXe1bT4oSpqQbldlXK84VK15Vw7Dg8dOFq4Wilhn6o0sgP5ev5wKxNIJnUcl53AWJRUOn6MmhJAwZOJdHwgK1bGDu66emKglJkQEQe//4cDtoIVeri5DcKT54lG7fkF0NGej3+Ltrah6h40mPQdBXLNtNapLLduttA1QPxO61ExrSKpKTK9+jmHifizC5mxux9FUiNJ49jgvpIpoG5j6yoMnlsEfUhv4NW1q//JMZNDapZaFFmSDsUn9QElT3tUdXMW63iOrVtlyHmmAIjR3meK/sPo4VlICo01GHmInaaIshnAGKIBUdPXFZDHZJzjJqyDJmZhQ8JbNgajerNdWpYZXjkbxhH+tegbSBqNvfByIjZWDV3FZbOWKF0MXXRJ3TJrN+oq+CsG45yBMPMsi/GkL6umLcSi2YuN3nM5+iy2avwa+RC5kE9VFVMsZl18Ze4f8Vf4v+E/33kB1Tw6IZKdfUYPnSGgeaaAiJHJdaQLUaOXoDSdZzRrksIbifmXw4n7fkh4yo6IOpYw0lkwX1ZxhLJO3bsJYVV8iEwGekZCB27iMmRG36q1h3FajijYhMd6rRir2ESV4KW9mNNZ/y9ppt6/Zj+lO+9UOtKzE/EZcla8x95Xtmef58vUp6nGC1aBh9rdHLH/znxn/jzrT/hL9f/Bf+W+C8oOa4lStfyhbfPSMYxWog0uqlKxxylG5UBTcsuwZD181Jmmid/FBAlhkZ/k5IK736TePGusCa1u33HECNMyb1HT9F32Bx000XANWA0OrkNRXX2vjqtA9HJeQg8NKFw8QqDi2d4kdVV6TClLkpN7/dxzX+c4b2bLFngNdVq4Yca7TX429ay+PNdKcr7E/79xr+jbLAlytT1Qe/eY9nYBgspDBCVnwhNT4rF3KlL2IE1MGPsvXiZbvcj8pmA5Mm12ESY2/VjQuaBfqGz8pZ25ZMcyiuSZizCljymLc23Anv3DLo8KWBLv3EFade/l159//Xa9dz3mXHXVQWkg9NQVG7gi0raTvhbVAX83x0lUHJsY1Q216J6Mz1Wz2fmLVO+BUDIr0K9FX1OuKZWXXUl0CXruWFA2DxkqDqD/HOtefLFgIis2XxQrQWUFUtLVzPQKTFtinmSjTFTV9C9uMLOZRAeSXAXfi9J2fdSSTKFlckCUakHFpXPJY9hbNi9ejPM2voxv/FG5TZaVOngweTTh1Rej169xyBZiqxlRMEEEB+osDHe35qFa1G1iTfqmQcgOrcm4Q+7rPdFev2gUfNIbz3QjBn4+Qs0YyUfAwS4ejOeCWdfWpc7Zk5mTiJFzmLepm7oa6qxwd9euYC7J2PwTEqIJAHMX7moALvB5HUjvLwj0KJdXzRuGQQr+0GIHDGLvV2qHT/BsAoqgZdVYVr9CBSr4wKfPlOMxdhfGRCRB4+ewM4zDCVruUPjH4mXyR9O374vhosYM22lGttqbdMbN2WW7c63q61SpT20CpnvXjB9MbSMZx2dBsPZaxgmkaU9OHVaNbJ8f7asKZHjaEGvr1zE2R27EbNpJxLUkgeCJ6AWZeKqoN6Nx66oLcybvNUSu807DAmzkny4/GFARPYdOaNW1Zap74lJM6NUyU/hYth4j0BaOQ9CiXoatSwslXHkvZ4qpv41VM51W8C4iIEhE5kT6FG8rpcabi/FV3l8hqxHlOekyPe/N0uoLIquTfIbGQXIOd9nq1gdz8U8KnjAZDJDVzjRWh7n1LZ9bUAkeE+ctRZlCUjdNv7Yd5g9rgiyc/8p1GoToKrbleuSmbb7VBnn+loqCeXDRFXmU5ZEomZLLcL7e2HzAkdMHu6CphbeCpTwIb8i67bMhZtq0M9Vo/s1uj9hWsmXzuLQ2q30ImNQramfaqs1W3KqGvMQ+SqAiCS/fgtNj0j8TB5v5TQQ4ZFLMGLicgyfsOwDjaDKtsFjFqNlp2BUbqxnBtwLg0OmYET4DAwPm6aWHRt0ukkdQR3J7SOGyvsZ6v8RJvYfETYdEUOnwaprCHMgP4T280TW2W7A9U6kil0xd7wzKakW1lJ5eEymhr/AHeWqDGqKiyQQiXHK2mRY/9fIBXCiW5eKeMmbajAxlidHyCqCgvLVABG5eC0OLRgTVIJVw1ENJH5MS9Z2JnPxompRqamUqurVXHhpflaCOY6sEy9ex/N9re3JJMuDzE6HKjxGHr8hSVex2u4MmFKkYGp/T1Ro4oMaLX2waa4rcNkKOE1Artri7DoH1G/njeYdQnBx197c/OJLVIBQtciMVzejY9A/ZBIas6OVbqDDj9Vd0LB9T3j3nozf1u1TRYlKCrj3rwqIyIEj52kFYhkraAUrMJw6bNwyZuwfati4JWrAMnTsYlh0H4TyBESqTjy8R2H8iDl0I9MQxt6dXyNoDf36TUTjdj1Qoakv2ncdjFBaSTitQV4L7i/D8mGDp6K9fX8FdvhAD+CcPUGxpoV0xuIpLijXSAML+8FqUkxl4CYau2hqcFFndx1U2fnP9TyYb3nDxmWoiq0yNZGznK0w+QqAyCOJDDCnZ2bgXXoqXqek4NWbt9Q3zOoNq4hMp0F5cjjmoqLOUjHi6hmqFtXIgF82+X6WyhXIlIQa8//0+BsYFT4T5blvc6teOLNDSm/Ys1Ug5z75VWYY2WMXTl+OsuypdVrrERnqhpjVTlgwwQW/WGlQvJ4XBg+cotYzyjSy6cYugpIECC12dA+lVbqjjX0IojYcxMPH+ctvPy5fARBDQz998RIRjAsu/qPg1TsSXr0mwitoAvR9p+CoqZVEJmTr/pNobNkLZeiy7MjAVAWHBHo1Y0ffnpPYkX4+Pn0KXd3CVCWKxmck3srTH2QWMmef/EqG9OzSBVV0UJoBvBx7bbWW3ijf1B8lebyDRyjiY06wd3NfcTmmGrsoyux96ayViqQ0tuiNgzG8ps+Ur+ayDhw9ox40Vr6hjsHTG5Ua+6Aig7U8Oaf3oBnGvUxLftuRx2y0sjM8Bqm5VU+snBeFTOn58nCx/LTzTiwOrtupMt/yZp6YNmGhIfsWq8hhOUZVc/UJN1WJ6JxJy+DkGqHOLXPwY0fORuIxmYc3zNUXqRbLlMq1saME9hiPnxgvho7l9RjXq3/cN7wvRQYk56Sy3iPxzn2kFRi7WrcjGqXYMO3NfTCvqxNWdXVBTxsNyjbUqse1FhQpL31GqxIpeMEnzl5DF8/hauS1GvOFIQMnI/EoXZjU9Mr0rTSwNDyZzLhR81X5jjw56Jg8HkPyBtWoBRpWjhFLY4xIvnAej5gMPjvLrFstCDXMw7+3/+cqLfjd1UtqoPKHqo5YtGq38W4+Tz7LQmTh+8zFW8mk+mLwyAW4//Ap5MFc0THn4N1nMorTOnyt3QEtGYy2A/Y6dEM5NmiTDv2xZPUO5Uulz6zbeohBfAA82JsS7pl+ZF5i0mP0C51JK9OSpWhhadcP25ZvRJZUtrM3qjluNuTvZ87RdYWrCkF3bYRaky7VhIWWgQqQAoxK+KhSryVjW+ISTe1fVGX8eHv5Ilw8wsionLAkqujTtvnlswCZvWQzqv/ig9JmPuz5OnTTDmeMmIz6bXuipDyqiAxpgi1ZjGdHqhUuO9vBnBZTsqmPeriAndcw+DHXkKfElW7gjVINGcB9RuEOG98gYiuiBlNPTc3AijV7Yd4lBCUbaNDFMQTPz7HB49ng7PFqqIUNG71xp2FVsJkeU8bRVcjSMuXeCnE/BECes5h08hQu7z+MxOMnkCHlQX8kGycgKQqQYXRZjli8mvHvC+SjgBhcSTYtIxtLfttBHh/AfMEXbpZeaN/WG8Ua+6JYQ2/Ubu4NjaUW0+zckeRuh0xtR2T4dkGqZwfsdOiOkA4eaGuuI5De+Emy5Ra+8LYk928twHpDGxiphlIM3/ahyCP/KjbzRoduIYYHV+anphK0b19TT3soRdAatgtSTxZV5UDipnIKsXOUtPTu8ZMYNmQKWlj3QoPWgWhqGYS+fcbi2oEct5hv/6Lq9wAkR6TiRGqqKjbTIdjaDY81djjr0hV+lh7QE4jtjt3x1qsz4NEZ2V42SN2wHGnXziF1qA+InnJh19w7Y2xHNzi012BRFycka+2wycERTc39UKaRrCuZjMdPTK9YXbflECoRkI7d++NJQUBE2eOfMi64kC4L3XRh/Hkqj4+9a2Rmsr+Mk90lO+Pxrmw0iTuVpfianaxKMz3Kkfp26NIf12XtyueO5op+L0Dk2SQ9B/2KEvU1aNVGj2se3djANnRJNnjtaIlXbkywNOKibJDtZoV0ApN+PBqZ6SlIGzkQmS6WyPLidgIlr0+d2hMkCx7D47xtMMzWC6WYENZv44/zV+hqTEjUpgMfB0TiCfOQo7QMKQkt01CDSbSYNwyyKVcv4DUbSobcZSXv+FFzUJGusg7zF49pexG67z58FsTArMsgguSO4OBI9cg/BWRhLs+Ufk8L2Xf0HOqRxVRrocfULo7I9uiATL09sof3AwK6I8vdio1tS1BErYBgTyC8h2pwaDoQjI7I9OA22Sc0EJnBjDPulrjsagertjrmBTr0j5iDt/LkNRPyaUCoEqzZsyePm6uSy7ptekDL/MTXfwz0/mPh4z+aOkatyqrM7S5jN2ICvdME5pPy7CzvedEkEBqYdwzGw9PyHbLu/Z8SEObYtJIJ01ejLBOqFq30uNy1I7JmjyP1fYeUjauRTUDgZYF3np1x2sUeqzp1wxKb7tjl0BUP6MbgRVDcOuDd4CCkJT9D5oUYpPg4YKCVG0o38oGN02DcuV/4c9aLBIiouK6LF+GpG0E3qEd5efA+wZYKlfKNNEqrNfdBFX4WuOi4ekzTKOaBk5h7DtwaTxfmg18s+yA+OkYB8kH8+Zh+a0AKBtdf527CT2ZaWLXxwa3ujAvjhyCDWXTGUiZ9HlaIYfDWWHrCrKWPetZhuSY61GLwtmyjxazO7njtao3sARpVQJa1ZxvSvO0wpqMjSjbxga3LMDx9mlfjVfC7iwyI6O2biDt8FLMnL8S0iQsxk68zJy/CzCmLMGvqEtiQblckI+wYPBcjz6fh10TeypVsOIxYgwrMo6zs++HlBeYn8V9gIVcuwpl5iPw4wFcFpOC40yMGWxuXUDX4N6UT3RFzjCxPa2To2Pt1nbC+mwOaEYiS3C61rHYeEXD0GY1mtn1Qhhl7pWa+6EOm9YR0OEtni0wv5ileVrjiao/WrWQFlS+Wr3uft+e/hs8CRFQCuKrN5X4SoEXl/3vxWLcgClXZYWSCqkOvWfCaugudByxGNV63APJrpPGRH5/LtBQglwhIOH6o7vy1LSQbWczIb8QnYcf+Uxg2fqlq1F9aanGD7ApauigCAk9LnHTqghbmvmodhxNzigMxF/Dw0VM8ffaSx9/DuF9Xq8frSYI42tYVmXIc44cK8lpbDLH2RHG6FHttOFZvOogT564h2bg6K0c+GxBRadD8Kp8xf5EKk5GMV7XpukrVckHJGq4oyddqTbwQ3GcSXlymD8s/c/lJFbdGNZ7b1XMk/l6tOxauyin6+Dwp1GUdOXERTa0DVA1V2eZ++LlZIPTtdUjRSOBmo3qQ3mo6oY+1B0qY6dDVayQS7pquz5o5bwPK0j+btfIhXSZL05CRSfLIc63p6oLKLWhd/I5KrfxRtZkWoWMWvfdLBF8ESGF667pa7L91+XoE9Y6Eq2YE/ALHYtXcFWRiMpeRAwYbWUp9HtKnPWSwKVSN25/cxaU9B9Wy7zL13LB2c87DQD9PCgVkadROVV1Yn43lxURwmK0GZ51oHW7tkO3KHk72dIksqXVLb1RhQ67fXvha7OfPX9ECIhhX9JjU2RXZ3gRDYoprOzx3tcHcLq7oZa2FRWvJ3nVw8R+PFy/zYspXBURUKK0qA7qhqujVGhAZSlFUV/a5hqyb17Fz5WbS5FmYOGbOR3QepoydoxaKdnUZrCppLLoPREKS6SGhT0mhgCxfuwfl2Wvt2mlw14M+34NW0aMb0tctRtrMCXRbttjdtasqeG7ffQgS7hVevSgyYcYaVVzQU8a6mLOkh/ggbfMqZI0JUS4snRYzz84J5ej63HtMxMsXr4xHfgNAclSospoDKeCi6LKenD0HK7t+6mEIxWu54u9VHfFDNadC1BH/WcVJPS2vuU3v3CUYXyIKEAmgGdkZ7wXS39buVoA4tdXgneQPbuZ4NywIMt+VJkEy0BEb7brgZwZCW5cItY7kYzJn0Q78WFsDb0s3wMUaqctmqHOl7tnKhJKJos4SUfZdaUXecFOA5MWRbwWIYf7bxDYCIg/il0djlKeXcA+IxIDhC9EnbO6HGjoXvUX5fszklTh3Mac27ctEAZKakYl7dBFp+R5ZunzNLlRs7kuaq8FBFwc8dmMG7tsVGfMmITVymLKQQ926oQYvuIVdf1yOpR8tRLKzMzGEcaFEAw362xAQLzK0vlqkLZ2LjNAeeOnWEXEe9hhh66bmyt160GV9DwspTOnC7p84hXad+qI0s3dZY2kQ6bAfqqEji/5xUYCkZ2XjZUrae4/EXrl+L8rXk4cF6GD2ix7m5t5Y1MUF2c4WyHRtr2jrHffO6NhWT7rrjSlzDQ+kNyXX4+6gVadgVGKmv6SbC+NPJ2QyUcx2bYOrjrZwtfBEEyactZvrUYKsx8VPHmmUV3D3DwOkc7ABkJjzxiv59mKMIYKugMFX4/z4JTZiwKDpsPUIQ+22QSjdIgBd6L5eeDgwntgim9Q3W9sJk21dUKapPxp36Itt+06qY/PLA1Jgn+BJzPL9YNPWG0kedsY8hoGdOcwsxo2yLfzJtPxhTktz8RuLtZsOq9GBHMkBxJZJnVroo4bX6f+/lRJw+bGw9goQD+yL/riF5Okfl3xBPe+kUhnx8M0b3GJC+PDxU2zZHYNa5v60FF8ccnJkg5JleXRgLLDAA5fO7OFaZSWNLPpi+Phl2Hv4HI6fuYEFK3cqOlymsVatJdnk4Ex2xRyGmk0Le0NQfK20dGVa9Audg8Q7j5D88sMfeFSANPeGTbcQ3I4+iJRLp5F89vg307c8/419B9HWtrcBkCOfPzf+pZILiBhGOl3W64w0PGBilvDsFZL4+iYjG8+lCK7nREVJ+3VwNwR5T1uk9mE80HdGrLMtNMxRyjb1Q2nmGzVbBaJOqyA2oj+KNdKjKfOPFfZ0VUwGM4Kcke5H+kxA93d3RN1metShBe7L9dMi7/c2AyB6dLAPxtVd2/H78UO4d3TfN9PHxw7i7LbtzCkISIN/BCACRmYWXqS8Q9LLF4gnY0p4nqx+HSb+2Rs857bZy7epnt60pS/OdbMBJkcg/cE9pK6cz4a2xBPGk8X2jnCz1KBlSw2a/6JFR3Mdhtt44qwz3Zxne2QM8EHqnVvIOLQTaTo7DLBwR4lGvnDwHol3qYY5+vxML0fWEBAZ6rDu2hdX9uzE45MHkRSz/5vp78f34+z2LTDv1AdlGUf3H/4HACIuW2YG37HxH9MiEp89RzxBeZbyFk9pKQH9p7H3a2HfjnHA0RIZ00cj/XUy3q1digx30lYZ0WXmnezeCYmONojrbolHTByzZOJKK4mgBd4N9EPakwdIY4Nm+thhpq0DKjTVo4lN8EdLZtZtP4QqZHw29v1w88AuupVDeMpzfCt9feYQLhJ4c9u+CpBDn/FEuD8q+WJInmQQnfsvknHfuLRg0bLtqMiErRFdz0G6GZnXyGBAzwzRAL4yUyjjWjJpRVDk/WBfYNwg5c5kfkQNk6ihEu7T2x2ZATwHXdZLTzv4WmvwM12hg24EHj35sKAsIyMds5duVoBYs8ceWLUW57dvxenNm76Znqe72rFiLcxteqJsA88vHgb5EjEJiIg8NF5+VkGsJ3jIDDVf3bi1P444dSc7MswYnutmi7NOnZFFGqtmEd07IJ2NnnLmMCl0GtJGDVSBX23j5/c8uiDavjNeuDIGkWm99eyEQGt5wIwe8kCzS5fyZgxl2VfUxv3wDByPlrYhqNqiB+qY90Dbzv1UWWh7u5Bvp136ow2z9NqtA9kRhP0Ngk/vKczAY95jf99CCgVEYoo8vk/k4tVb6OAyQD3SyLoNrcTJAfPsXdHYnO6mlS8TOmeccumKl+60ArKntKgFSLtwBtn99Uh3s0a8e1f81s2RtFnYli/8rdy5vwPCO8q8th8qN5d13JtyH+uUkZGByXPWqbnuYrWZC5HyNjD3Uz+PV7OFDjW4/7dW+Z66rX1Qr40vKjfy4nV4kKz4qt/G/ZZSKCBiGVmZeQH2+IVYtOvan/mEhq4rADWb+aJ8E1/1CKXS7OF1WmrhSfob070rcwyyKeYqz2kxMuRuTuDKc59yUs3YVEo4BUg/VGPvk8aeOm8DLSrvu6KZiMnT5+R5Vn30Omwfp8GuCRrsHP+dNVKDvRM8sGWMNwI0MgPpjSZWvXDucp4lf20pHJD3JBupbLDo09dg0a0/fqjlhtqktmOnrsTytbvVj8bXlNqsZj0xsAOpsHJRljjt1AW1f/FD+ZY90ZquZuSEZVi58SBsXYehRF1PVSw9YdY69bMW+WX8tNX4saYbPF11eLGecWqnO7CDuv0foDt4P7s9kPSbO7p280EZM3Yg48/kfQspIiBgPpKKV5np2BVzEUFDZmGTWiNnaMiU1HSMIDjF6nvBk7T3laYL0nUdsNrBBaVIldt1G4Br8XnP2opLSMKwUUswa+FmpDHvyS9SST9w+Hy1PiS8pw7YpUH6RidkbHDnq9v31Q0GzdrkiuwtHhjor8UPtTUIj/zNeLVfX4oMiOQH8vM8qcahlYKyaedxuhgtzFrp4W2hYbDWwradjj1KA3e/cca9iibjp0cpC3Hp7ov7qzyBbUwqt7C3bmFv/UfoNjfcXuwFWztvlDPTY1buY1+/vhQZkMIkJ5E7d+kmmnboiZ9qOePHuu74QeYR6rqhNHX05M/rUfIzGPXIqGToW+euw+oIPdaN9saa0brvrN7YMFqPZcPZqZx1JDV6NO/YG1c/MrL9R+UPA2KQLLKydGzdd5z+dS2mL1qPGYs3YNrC9Zi7fCsS70vtrmnLMiWy5+wlG1GD2XnpBj4MprK0QYuKDKrfXUksylJL1deq30JcvuHLiqiLKl8BEGm+ojR20QDJ2Ut+fHHPwTMIGjhN/Ya5ZfdBsHQc8p11KCwcB8HaaSj6hs5Sjyk0XN+3y0W+koV8O5H1KG/fvsNr6pt/oMpSjO8h//SA/P8lwP8DSeHCM+H7bf4AAAAASUVORK5CYII=;" vertex="1" parent="1">
          <mxGeometry x="280" y="171" width="119.57" height="110" as="geometry" />
        </mxCell>
        <mxCell id="lPx5ujWDSRXHcGL7_enU-15" value="" style="shape=image;verticalLabelPosition=bottom;labelBackgroundColor=default;verticalAlign=top;aspect=fixed;imageAspect=0;image=https://www.freeiconspng.com/uploads/emergency-alert-icon-alert-icon-8.png;" vertex="1" parent="1">
          <mxGeometry x="290" y="530" width="80" height="73.34" as="geometry" />
        </mxCell>
        <mxCell id="lPx5ujWDSRXHcGL7_enU-18" value="" style="edgeStyle=orthogonalEdgeStyle;rounded=0;orthogonalLoop=1;jettySize=auto;html=1;strokeWidth=2;" edge="1" parent="1" source="lPx5ujWDSRXHcGL7_enU-11">
          <mxGeometry relative="1" as="geometry">
            <mxPoint x="100" y="540" as="sourcePoint" />
            <mxPoint x="250" y="570" as="targetPoint" />
            <Array as="points">
              <mxPoint x="106" y="570" />
              <mxPoint x="187" y="570" />
            </Array>
          </mxGeometry>
        </mxCell>
        <mxCell id="lPx5ujWDSRXHcGL7_enU-19" value="" style="edgeStyle=orthogonalEdgeStyle;rounded=0;orthogonalLoop=1;jettySize=auto;html=1;strokeWidth=2;" edge="1" parent="1">
          <mxGeometry relative="1" as="geometry">
            <mxPoint x="399.57" y="566.17" as="sourcePoint" />
            <mxPoint x="485.57" y="566.17" as="targetPoint" />
          </mxGeometry>
        </mxCell>
        <mxCell id="lPx5ujWDSRXHcGL7_enU-24" value="" style="edgeStyle=orthogonalEdgeStyle;rounded=0;orthogonalLoop=1;jettySize=auto;html=1;strokeWidth=2;exitX=0.5;exitY=1;exitDx=0;exitDy=0;" edge="1" parent="1" source="lPx5ujWDSRXHcGL7_enU-12">
          <mxGeometry relative="1" as="geometry">
            <mxPoint x="382" y="340" as="sourcePoint" />
            <mxPoint x="340" y="370" as="targetPoint" />
          </mxGeometry>
        </mxCell>
        <mxCell id="lPx5ujWDSRXHcGL7_enU-31" value="" style="edgeStyle=orthogonalEdgeStyle;rounded=0;orthogonalLoop=1;jettySize=auto;html=1;strokeWidth=2;" edge="1" parent="1" target="lPx5ujWDSRXHcGL7_enU-11">
          <mxGeometry relative="1" as="geometry">
            <mxPoint x="280" y="436" as="sourcePoint" />
          </mxGeometry>
        </mxCell>
        <mxCell id="lPx5ujWDSRXHcGL7_enU-28" value="" style="shape=image;verticalLabelPosition=bottom;labelBackgroundColor=default;verticalAlign=top;aspect=fixed;imageAspect=0;image=https://cdn-icons-png.flaticon.com/512/69/69063.png;" vertex="1" parent="1">
          <mxGeometry x="294.79" y="391.38" width="90" height="90" as="geometry" />
        </mxCell>
        <mxCell id="lPx5ujWDSRXHcGL7_enU-32" value="" style="edgeStyle=orthogonalEdgeStyle;rounded=0;orthogonalLoop=1;jettySize=auto;html=1;strokeWidth=2;" edge="1" parent="1">
          <mxGeometry relative="1" as="geometry">
            <mxPoint x="170" y="219.99999999999994" as="sourcePoint" />
            <mxPoint x="256" y="219.99999999999994" as="targetPoint" />
          </mxGeometry>
        </mxCell>
        <mxCell id="lPx5ujWDSRXHcGL7_enU-33" value="" style="edgeStyle=orthogonalEdgeStyle;rounded=0;orthogonalLoop=1;jettySize=auto;html=1;strokeWidth=2;exitX=0.5;exitY=1;exitDx=0;exitDy=0;" edge="1" parent="1">
          <mxGeometry relative="1" as="geometry">
            <mxPoint x="105.5" y="281" as="sourcePoint" />
            <mxPoint x="105.5" y="370" as="targetPoint" />
          </mxGeometry>
        </mxCell>
        <mxCell id="lPx5ujWDSRXHcGL7_enU-35" value="" style="shape=image;verticalLabelPosition=bottom;labelBackgroundColor=default;verticalAlign=top;aspect=fixed;imageAspect=0;image=https://cdn2.iconfinder.com/data/icons/geography-color/64/gis-layer-process-present-analysis-positioning-overlay-512.png;" vertex="1" parent="1">
          <mxGeometry x="510" y="505.67" width="122" height="122" as="geometry" />
        </mxCell>
      </root>
    </mxGraphModel>
  </diagram>
</mxfile>
